<svg version="1.1" id="Layer_1" xmlns="http://www.w3.org/2000/svg" xmlns:xlink="http://www.w3.org/1999/xlink" x="0px" y="0px"
	 width="100%" viewBox="0 0 3464 3464" enable-background="new 0 0 3464 3464" xml:space="preserve">
<path fill="#000000" opacity="1.000000" stroke="none" 
	d="
M3148.000000,3466.000000 
	C2098.666992,3466.000000 1050.333984,3466.000000 2.000703,3466.000000 
	C2.000469,2311.333984 2.000469,1156.667969 2.000234,2.001478 
	C1156.665649,2.000985 2311.331299,2.000985 3465.997803,2.000493 
	C3465.998535,1156.665283 3465.998535,2311.330566 3465.999268,3465.998047 
	C3360.333252,3466.000000 3254.666748,3466.000000 3148.000000,3466.000000 
M1704.409180,2095.893311 
	C1703.284546,2098.996338 1702.097290,2102.078369 1701.050049,2105.207275 
	C1699.384033,2110.184326 1700.895386,2113.002197 1706.000977,2113.680908 
	C1709.272949,2114.115723 1712.684326,2113.481934 1715.963013,2113.890137 
	C1724.705811,2114.978516 1730.778809,2112.532715 1732.946411,2103.097412 
	C1734.140503,2097.900391 1737.753174,2096.095215 1743.355591,2096.341797 
	C1754.646118,2096.839111 1765.977783,2096.666748 1777.284302,2096.407715 
	C1782.137329,2096.296631 1786.000366,2097.228516 1787.215332,2102.392334 
	C1789.605347,2112.549805 1796.322510,2115.298584 1805.797852,2113.862305 
	C1807.424072,2113.615967 1809.120239,2113.854248 1810.783203,2113.822754 
	C1820.436523,2113.640137 1822.135620,2111.156982 1818.164307,2102.496582 
	C1801.170288,2065.438232 1784.150757,2028.391357 1766.943359,1991.432129 
	C1765.847168,1989.077759 1763.384033,1986.517700 1761.021240,1985.788574 
	C1757.285034,1984.635620 1755.185181,1987.645630 1753.680542,1990.944214 
	C1745.153809,2009.636841 1736.628296,2028.331055 1727.911133,2046.935059 
	C1721.870483,2059.826416 1715.521484,2072.573242 1707.010254,2084.874023 
	C1707.131470,2079.621826 1707.767944,2074.320557 1707.272339,2069.127197 
	C1706.040039,2056.213379 1698.230103,2047.511108 1687.756104,2040.891479 
	C1698.138306,2020.112427 1690.909790,2004.599854 1678.802856,1995.257080 
	C1671.658936,1989.744263 1663.422119,1987.619629 1654.563965,1987.559570 
	C1645.235962,1987.496338 1635.906250,1987.463745 1626.578857,1987.567627 
	C1618.785156,1987.654541 1617.611328,1988.562378 1617.588135,1995.987183 
	C1617.475220,2032.301270 1617.475220,2068.616211 1617.590454,2104.930176 
	C1617.614624,2112.532471 1618.885010,2113.666016 1626.332153,2113.757812 
	C1637.657959,2113.897217 1648.989380,2113.633301 1660.313477,2113.832520 
	C1677.671021,2114.137695 1692.344849,2109.001221 1704.409180,2095.893311 
M1669.323242,1613.792847 
	C1723.971313,1613.792114 1778.619507,1613.795776 1833.267578,1613.778931 
	C1836.260132,1613.777954 1839.295166,1613.886963 1842.234131,1613.441162 
	C1845.750244,1612.907715 1848.401855,1611.016113 1848.870972,1607.090210 
	C1849.184448,1604.466553 1849.717285,1601.839722 1849.723633,1599.213257 
	C1849.787231,1572.555786 1849.862183,1545.897461 1849.670898,1519.241211 
	C1849.636230,1514.414917 1848.407349,1509.597046 1847.689453,1504.487915 
	C1844.092651,1504.197998 1841.498535,1503.807129 1838.904175,1503.805908 
	C1746.602539,1503.762451 1654.300781,1503.744019 1561.999146,1503.758301 
	C1550.784912,1503.760010 1550.233521,1504.331787 1550.231934,1515.809570 
	C1550.212036,1660.426880 1550.212036,1805.044189 1550.230835,1949.661499 
	C1550.232544,1962.273560 1551.559448,1963.618530 1563.760986,1963.620728 
	C1655.063110,1963.636597 1746.365356,1963.632935 1837.667480,1963.606567 
	C1840.586548,1963.605835 1843.505615,1963.295654 1847.394287,1963.074585 
	C1848.224365,1958.240112 1849.623901,1953.767700 1849.658569,1949.284790 
	C1849.866943,1922.295776 1849.821167,1895.303833 1849.691772,1868.313721 
	C1849.674561,1864.722290 1848.700195,1861.135376 1848.168701,1857.546387 
	C1847.502197,1853.044922 1844.647461,1851.504150 1840.401001,1851.667603 
	C1837.739624,1851.770020 1835.070435,1851.663940 1832.404663,1851.663818 
	C1779.422729,1851.662231 1726.440918,1851.662598 1673.458984,1851.662598 
	C1669.900635,1851.662598 1666.342285,1851.662476 1661.786377,1851.662476 
	C1661.786377,1847.174683 1661.786255,1843.922974 1661.786255,1840.671387 
	C1661.786377,1768.695923 1661.785767,1696.720581 1661.789673,1624.745117 
	C1661.789795,1622.412964 1661.840942,1620.080811 1661.858276,1617.748657 
	C1661.887207,1613.882446 1664.612305,1613.808838 1669.323242,1613.792847 
M1371.000000,1503.796875 
	C1334.000610,1503.796875 1297.001099,1503.799194 1260.001709,1503.795654 
	C1241.617188,1503.793945 1241.610840,1503.789307 1241.610596,1522.343140 
	C1241.608765,1663.674194 1241.609741,1805.005371 1241.609985,1946.336426 
	C1241.609985,1948.336426 1241.567749,1950.337524 1241.621582,1952.336060 
	C1241.902344,1962.743896 1242.686768,1963.585327 1253.404541,1963.605957 
	C1283.070557,1963.662842 1312.736938,1963.630371 1342.403076,1963.630127 
	C1343.736084,1963.630127 1345.069702,1963.620239 1346.402100,1963.582886 
	C1350.822876,1963.458984 1353.082642,1960.881348 1353.593994,1956.774658 
	C1353.921631,1954.144897 1353.774780,1951.451294 1353.775269,1948.786255 
	C1353.783081,1898.453735 1353.781372,1848.121094 1353.781494,1797.788574 
	C1353.781494,1794.238281 1353.781372,1790.687988 1353.781372,1785.989502 
	C1398.559814,1785.989502 1442.040283,1785.989502 1485.942017,1785.989502 
	C1486.669678,1781.307983 1487.690063,1777.738770 1487.706543,1774.164795 
	C1487.838379,1745.499268 1487.860596,1716.832397 1487.741577,1688.166748 
	C1487.693481,1676.596802 1485.162964,1674.268311 1473.524048,1674.259521 
	C1437.524658,1674.232544 1401.525146,1674.249756 1365.525757,1674.249634 
	C1361.951050,1674.249634 1358.376221,1674.249512 1354.316895,1674.249512 
	C1354.316895,1653.688477 1354.316895,1634.213501 1354.316895,1614.136108 
	C1356.692261,1613.910522 1358.598389,1613.577637 1360.505615,1613.572266 
	C1376.505249,1613.526733 1392.504883,1613.537964 1408.504639,1613.538086 
	C1442.837402,1613.538208 1477.170288,1613.568726 1511.503052,1613.526367 
	C1520.489868,1613.515259 1521.824951,1612.157837 1522.341431,1603.304199 
	C1522.399658,1602.307129 1522.368286,1601.304688 1522.368286,1600.304688 
	C1522.369507,1572.305176 1522.377197,1544.305542 1522.355835,1516.306030 
	C1522.354004,1513.979492 1522.332031,1511.628296 1522.006470,1509.332764 
	C1521.528564,1505.963379 1519.585938,1503.928467 1515.996826,1503.866333 
	C1513.330933,1503.820190 1510.664185,1503.800293 1507.997803,1503.800049 
	C1462.998535,1503.795898 1417.999268,1503.796875 1371.000000,1503.796875 
M1895.846436,1951.178101 
	C1904.465454,1957.452026 1913.587158,1962.908813 1923.947388,1965.625854 
	C1947.866455,1971.898438 1969.915894,1967.926147 1990.012085,1953.152344 
	C2003.394531,1943.314209 2012.956909,1930.016235 2016.967896,1914.708984 
	C2022.618042,1893.146484 2021.288940,1871.504639 2008.002930,1851.699341 
	C1997.750610,1836.416382 1984.772217,1825.537964 1967.135620,1820.254272 
	C1961.803345,1818.656860 1956.512573,1816.921143 1948.864136,1814.512207 
	C1969.507202,1811.762085 1985.825562,1804.524170 1998.510742,1791.076660 
	C2011.103027,1777.727417 2018.897095,1761.869385 2019.734985,1742.983032 
	C2020.660278,1722.129150 2014.819336,1703.865479 2001.037598,1688.004028 
	C1987.233032,1672.116089 1968.986328,1664.896606 1948.601929,1661.021973 
	C1949.676758,1659.768066 1950.004517,1659.064087 1950.535767,1658.837891 
	C1951.429443,1658.457275 1952.443848,1658.269775 1953.422607,1658.192383 
	C1964.291016,1657.333496 1973.967773,1653.110474 1983.243042,1647.721680 
	C2000.179810,1637.881470 2011.807129,1623.002441 2016.965088,1604.797119 
	C2021.752441,1587.899658 2021.245117,1570.379150 2013.930176,1553.160522 
	C2002.337280,1525.871948 1974.961182,1507.729004 1947.455933,1506.462280 
	C1913.985962,1504.920654 1882.905640,1526.677734 1871.921997,1560.295532 
	C1867.038696,1575.242310 1866.698486,1590.396973 1871.912476,1605.154053 
	C1882.431885,1634.928833 1903.142456,1653.064697 1934.742310,1658.112061 
	C1937.315186,1658.523071 1939.764038,1659.709839 1944.097412,1661.138428 
	C1902.336060,1665.244385 1872.729736,1691.701172 1868.642456,1732.850952 
	C1866.598022,1753.434204 1873.549683,1772.349243 1887.336304,1787.998657 
	C1900.834351,1803.320068 1918.145752,1812.130005 1938.663452,1814.875977 
	C1934.385254,1816.615479 1930.255981,1817.671021 1926.148315,1818.804932 
	C1909.664185,1823.354858 1895.306030,1831.456421 1884.990112,1845.333252 
	C1867.457764,1868.917358 1863.314087,1894.490601 1874.595459,1922.140015 
	C1879.097900,1933.175415 1886.828613,1941.773682 1895.846436,1951.178101 
M1814.403442,1686.602661 
	C1801.600464,1671.359375 1785.018555,1662.343628 1765.513062,1660.560303 
	C1733.494995,1657.633179 1698.162842,1679.097778 1688.819458,1713.253052 
	C1683.618164,1732.266724 1684.735962,1750.065430 1692.998169,1767.365479 
	C1713.359741,1810.000488 1767.799072,1820.376221 1802.217651,1794.454590 
	C1836.506958,1768.630005 1841.721436,1719.182617 1814.403442,1686.602661 
M1588.190796,2242.288086 
	C1591.298584,2240.544434 1594.406250,2238.800781 1598.676392,2236.404785 
	C1598.645264,2246.100342 1604.429199,2246.344238 1610.790283,2245.860596 
	C1613.440552,2245.658936 1616.125977,2245.699707 1618.782593,2245.852539 
	C1622.596191,2246.072266 1624.978516,2244.600830 1626.384521,2240.917969 
	C1627.768311,2237.293213 1629.705566,2233.879883 1631.342407,2230.492920 
	C1643.897461,2230.492920 1655.553345,2230.626953 1667.202881,2230.419189 
	C1671.166748,2230.348389 1673.330566,2231.950439 1674.791870,2235.434326 
	C1676.298950,2239.027344 1678.167725,2242.468262 1679.799561,2245.814697 
	C1686.663208,2245.814697 1692.664185,2246.004150 1698.646606,2245.752930 
	C1703.191895,2245.562256 1704.630127,2243.477539 1703.427734,2239.313721 
	C1702.880371,2237.418213 1701.771606,2235.686768 1700.942261,2233.869873 
	C1690.607910,2211.228271 1680.291138,2188.578857 1669.941406,2165.944580 
	C1665.801025,2156.889648 1661.773804,2147.773438 1657.272339,2138.899902 
	C1656.247314,2136.879639 1653.462891,2134.544678 1651.501343,2134.556396 
	C1649.651001,2134.567139 1647.182373,2137.139893 1646.097534,2139.177734 
	C1642.982910,2145.027588 1640.433350,2151.177979 1637.659058,2157.209229 
	C1626.981201,2180.422363 1616.302002,2203.634766 1605.109741,2227.964355 
	C1602.045044,2223.927002 1599.476807,2220.573730 1596.941162,2217.196533 
	C1591.515137,2209.969482 1590.899658,2209.812744 1583.669800,2215.282471 
	C1577.425537,2220.006348 1570.506226,2223.921387 1562.706299,2223.244385 
	C1543.369995,2221.565918 1528.636963,2202.060303 1534.036743,2183.628662 
	C1538.811035,2167.332275 1559.240723,2153.263916 1577.402954,2163.753418 
	C1581.656616,2166.210205 1585.604004,2169.197021 1589.605713,2171.881592 
	C1596.257202,2167.836670 1600.315430,2162.476074 1603.591553,2153.552734 
	C1593.441284,2141.292236 1580.473267,2136.146240 1563.425659,2135.361084 
	C1534.812866,2134.042969 1501.603394,2162.996582 1509.058716,2202.463623 
	C1515.442627,2236.258789 1553.330322,2258.324707 1588.190796,2242.288086 
M1503.881348,2163.026855 
	C1503.881348,2154.471436 1503.881348,2145.915771 1503.881348,2136.757324 
	C1495.221313,2136.757324 1487.796265,2136.757324 1479.447876,2136.757324 
	C1479.447876,2140.547363 1479.447876,2143.823242 1479.447876,2147.099365 
	C1479.447876,2163.748535 1479.578613,2180.399170 1479.362915,2197.045410 
	C1479.303345,2201.634033 1478.826416,2206.403320 1477.457886,2210.748535 
	C1474.954956,2218.695801 1467.064209,2223.854492 1460.157715,2222.941162 
	C1452.083130,2221.873291 1445.310303,2215.438965 1444.082031,2207.427979 
	C1443.731934,2205.145020 1443.889893,2202.777100 1443.888306,2200.448242 
	C1443.875610,2182.800293 1443.924438,2165.151855 1443.844971,2147.504395 
	C1443.829102,2143.979248 1443.344482,2140.456055 1443.049683,2136.586182 
	C1434.817993,2136.586182 1427.617310,2136.586182 1419.514404,2136.586182 
	C1416.017700,2154.920898 1419.928711,2173.421875 1416.068970,2191.555908 
	C1414.577515,2189.092773 1414.075317,2186.508545 1413.905029,2183.902832 
	C1412.393921,2160.789307 1396.695312,2142.498535 1373.957031,2137.739014 
	C1358.172607,2134.435059 1342.259399,2136.786133 1325.580078,2136.049805 
	C1325.016113,2140.464844 1324.217651,2143.972900 1324.180054,2147.488770 
	C1324.030518,2161.472168 1324.118530,2175.458496 1324.118530,2189.443604 
	C1324.118530,2203.761719 1324.112061,2218.080078 1324.120605,2232.398193 
	C1324.128540,2245.869873 1324.135498,2245.872803 1337.089355,2245.880615 
	C1345.746826,2245.885742 1354.420776,2246.227051 1363.058960,2245.818604 
	C1393.226929,2244.392822 1411.777954,2224.204590 1413.917725,2198.280029 
	C1414.081909,2196.291748 1414.707397,2194.341309 1415.118408,2192.373535 
	C1415.847900,2192.390869 1416.577393,2192.408203 1417.306885,2192.425293 
	C1418.039551,2198.680420 1418.807373,2204.931641 1419.498901,2211.191406 
	C1422.352173,2237.019287 1448.923340,2254.225098 1473.622437,2246.220459 
	C1491.948486,2240.281250 1503.567017,2224.586182 1503.844971,2204.973877 
	C1504.033691,2191.657227 1503.881226,2178.335938 1503.881348,2163.026855 
M2000.119141,2009.366455 
	C2003.097412,2002.484497 2012.275024,1998.402588 2009.534790,1987.510010 
	C2002.489014,1987.510010 1995.566040,1987.801025 1988.681519,1987.411987 
	C1983.742554,1987.133057 1980.604736,1989.079712 1977.901978,1992.962280 
	C1970.496338,2003.600586 1962.907227,2014.111816 1955.317017,2024.620117 
	C1954.151489,2026.233887 1952.595581,2027.565552 1949.827393,2030.508423 
	C1949.827393,2025.404297 1949.827637,2022.499023 1949.827515,2019.593628 
	C1949.826782,2011.263184 1949.730957,2002.931152 1949.867920,1994.603027 
	C1949.930786,1990.787109 1949.056641,1987.821045 1944.695312,1987.673950 
	C1938.705566,1987.471680 1932.661011,1987.176758 1926.735107,1987.810669 
	C1924.874390,1988.009644 1922.713623,1990.809204 1921.801270,1992.902710 
	C1920.941040,1994.876587 1921.508057,1997.487793 1921.507568,1999.818604 
	C1921.499756,2033.473511 1921.499878,2067.128418 1921.506592,2100.783447 
	C1921.507080,2103.114746 1921.424072,2105.460449 1921.642822,2107.774414 
	C1922.006592,2111.624268 1924.098755,2113.817139 1928.136597,2113.815430 
	C1933.134766,2113.813232 1938.135010,2113.898193 1943.130493,2113.780273 
	C1948.075439,2113.663818 1950.025024,2111.053711 1949.898193,2106.069092 
	C1949.652710,2096.412109 1949.771851,2086.743896 1949.872070,2077.081543 
	C1949.893921,2074.979736 1950.471191,2072.884033 1951.041992,2069.157471 
	C1958.949829,2079.486084 1965.674316,2088.538330 1972.680786,2097.366455 
	C1989.261475,2118.258789 1980.541626,2113.097656 2007.038208,2113.825439 
	C2007.371216,2113.834473 2007.706177,2113.846680 2008.037598,2113.821533 
	C2014.233032,2113.352783 2016.186035,2110.017578 2013.296997,2104.510254 
	C2012.226196,2102.468506 2010.715332,2100.642578 2009.301147,2098.798340 
	C1997.978882,2084.030518 1986.620361,2069.290283 1975.308350,2054.514404 
	C1973.956787,2052.748779 1972.817993,2050.820312 1971.522339,2048.879883 
	C1980.949951,2035.791992 1990.070068,2023.131104 2000.119141,2009.366455 
M1835.830078,2049.289551 
	C1836.478027,2046.055298 1836.823730,2042.723999 1837.823975,2039.602661 
	C1843.702393,2021.261597 1864.691284,2010.123291 1882.217285,2016.515991 
	C1887.373047,2018.396606 1892.052124,2021.967163 1896.459595,2025.393799 
	C1899.931641,2028.093018 1903.115601,2029.098389 1905.970093,2025.571655 
	C1910.472534,2020.008911 1914.443115,2014.015503 1918.407959,2008.524292 
	C1894.975708,1979.845459 1852.468018,1978.701050 1825.784424,2005.415283 
	C1800.590698,2030.637817 1800.436523,2075.372314 1830.197998,2100.071533 
	C1858.781860,2123.793457 1898.904053,2119.128906 1918.187866,2092.781006 
	C1914.335571,2087.373535 1910.310913,2081.738037 1906.301880,2076.091064 
	C1904.140747,2073.046631 1901.348755,2072.903076 1898.477051,2074.705566 
	C1896.532227,2075.926270 1894.969727,2077.738281 1893.115845,2079.124756 
	C1886.034180,2084.421631 1878.041382,2087.945801 1869.209229,2087.000732 
	C1848.278687,2084.761475 1835.105103,2066.267578 1835.830078,2049.289551 
M1331.534912,2029.001343 
	C1331.535156,2053.961914 1331.471069,2078.922607 1331.569824,2103.882812 
	C1331.604980,2112.767334 1332.608398,2113.733643 1341.265503,2113.768799 
	C1361.233643,2113.849854 1381.202881,2113.869141 1401.170166,2113.715332 
	C1404.233276,2113.691650 1407.288208,2112.615479 1410.502808,2111.996094 
	C1409.921997,2102.696777 1411.655518,2094.440186 1409.111694,2085.503662 
	C1392.739136,2085.503662 1376.608643,2085.503662 1359.794678,2085.503662 
	C1359.794678,2081.300781 1359.794800,2078.011230 1359.794800,2074.721436 
	C1359.794800,2071.206543 1359.794678,2067.691650 1359.794678,2063.794922 
	C1363.713745,2063.794922 1366.341919,2063.794922 1368.970215,2063.794922 
	C1377.290405,2063.794922 1385.611816,2063.879883 1393.930664,2063.771729 
	C1403.175781,2063.651855 1403.646240,2063.128906 1403.787842,2054.232178 
	C1403.830200,2051.570068 1403.805176,2048.907227 1403.792603,2046.244751 
	C1403.742432,2035.624146 1403.739868,2035.590698 1393.492432,2035.552856 
	C1382.552124,2035.512451 1371.611450,2035.543701 1360.290771,2035.543701 
	C1360.290771,2028.818726 1360.290771,2022.662720 1360.290771,2015.794678 
	C1363.366455,2015.794678 1365.955078,2015.794800 1368.543579,2015.794678 
	C1379.859009,2015.793579 1391.174561,2015.778564 1402.489990,2015.799072 
	C1406.395508,2015.806030 1410.192383,2015.413452 1410.343262,2010.384033 
	C1410.559082,2003.197388 1410.398193,1995.999268 1410.398193,1989.173096 
	C1408.217285,1988.372070 1407.303955,1987.746826 1406.387695,1987.742554 
	C1383.758911,1987.637939 1361.129639,1987.651123 1338.501221,1987.510254 
	C1333.167114,1987.477051 1331.540649,1990.400879 1331.539795,1995.053711 
	C1331.538086,2005.703613 1331.536743,2016.353394 1331.534912,2029.001343 
M1449.335449,2063.961914 
	C1456.988770,2063.906250 1464.642090,2063.788330 1472.295288,2063.806641 
	C1495.498535,2063.862061 1491.480591,2064.920898 1491.739868,2043.895142 
	C1491.839233,2035.840576 1491.457764,2035.638306 1483.135498,2035.568726 
	C1471.596191,2035.472412 1460.055298,2035.544434 1448.418213,2035.544434 
	C1448.418213,2028.506714 1448.418213,2022.373535 1448.418213,2015.794678 
	C1452.985718,2015.794678 1456.941406,2015.795166 1460.896973,2015.794678 
	C1470.882080,2015.793213 1480.867310,2015.785645 1490.852417,2015.792358 
	C1494.378052,2015.794678 1498.158203,2015.363159 1498.234253,2011.017212 
	C1498.364990,2003.537964 1499.566284,1995.918091 1497.255615,1988.235596 
	C1494.577393,1987.978882 1492.306030,1987.577515 1490.033691,1987.572021 
	C1469.730591,1987.522583 1449.427368,1987.495239 1429.124390,1987.565063 
	C1420.407715,1987.595093 1419.580322,1988.396851 1419.562988,1997.424072 
	C1419.494873,2032.704834 1419.495605,2067.985840 1419.561401,2103.266846 
	C1419.579346,2112.900146 1420.434326,2113.740967 1429.649292,2113.773438 
	C1449.286499,2113.842529 1468.924561,2113.855713 1488.561279,2113.732422 
	C1491.705078,2113.712646 1494.843506,2112.865723 1498.190430,2112.370850 
	C1498.255859,2102.916016 1499.307861,2094.445312 1497.567383,2085.643066 
	C1480.625122,2085.643066 1464.686890,2085.643066 1448.777588,2085.643066 
	C1448.388550,2084.202393 1447.919922,2083.258057 1447.912598,2082.310059 
	C1447.869141,2076.655029 1447.932251,2070.999023 1449.335449,2063.961914 
M1926.952271,2135.609619 
	C1919.418823,2134.366211 1918.183716,2135.345947 1918.150757,2143.720215 
	C1918.058716,2167.052002 1918.118286,2190.384521 1918.118652,2213.716797 
	C1918.118774,2221.716553 1917.948853,2229.720947 1918.173706,2237.714355 
	C1918.368896,2244.659180 1919.542603,2245.647217 1926.432373,2245.864258 
	C1929.429321,2245.958496 1932.433960,2245.955811 1935.431030,2245.865723 
	C1943.074585,2245.636230 1943.789551,2244.996094 1943.851318,2237.044189 
	C1943.957275,2223.378906 1943.844849,2209.712158 1943.920654,2196.046631 
	C1943.932251,2193.970215 1944.464478,2191.896729 1945.116089,2187.258301 
	C1948.146729,2191.118896 1949.642944,2193.343506 1951.450806,2195.277100 
	C1966.666382,2211.552734 1981.954712,2227.760254 1997.180786,2244.026123 
	C2000.105469,2247.150635 2003.105103,2249.453369 2007.959473,2246.434326 
	C2007.959473,2210.125977 2007.959473,2173.616211 2007.959473,2136.613037 
	C2000.174194,2136.613037 1992.977295,2136.613037 1984.729980,2136.613037 
	C1984.283081,2140.350098 1983.546265,2143.837402 1983.505615,2147.332520 
	C1983.358521,2159.996826 1983.493164,2172.664551 1983.395142,2185.329590 
	C1983.379395,2187.377686 1982.721802,2189.420898 1982.100830,2192.939697 
	C1963.387939,2173.336182 1945.778442,2154.888428 1926.952271,2135.609619 
M1275.794800,2028.890259 
	C1275.794800,2024.690796 1275.794800,2020.491455 1275.794800,2015.794678 
	C1280.551880,2015.794678 1284.164917,2015.794800 1287.778076,2015.794556 
	C1298.424072,2015.793823 1309.070190,2015.758789 1319.715942,2015.810669 
	C1323.437256,2015.828857 1326.408203,2015.092773 1326.414917,2010.522705 
	C1326.425415,2003.313721 1326.417725,1996.104614 1326.417725,1988.533936 
	C1323.003540,1988.106079 1320.765869,1987.588867 1318.526489,1987.582031 
	C1297.900146,1987.518677 1277.273071,1987.487183 1256.646851,1987.571167 
	C1248.580078,1987.604004 1247.593994,1988.536865 1247.573486,1996.913330 
	C1247.485229,2032.843384 1247.475342,2068.773926 1247.586548,2104.703857 
	C1247.611206,2112.665527 1248.865601,2113.777588 1257.082886,2113.758301 
	C1278.546631,2113.708008 1275.621460,2116.048340 1275.781128,2095.319824 
	C1275.859497,2085.150146 1275.794678,2074.979736 1275.794678,2064.450195 
	C1289.031738,2064.450195 1300.998901,2064.363770 1312.963623,2064.495117 
	C1317.400635,2064.543945 1319.913452,2063.130371 1319.819946,2058.273438 
	C1319.692627,2051.674561 1319.788086,2045.071045 1319.788086,2037.645386 
	C1315.488159,2037.098145 1311.987915,2036.335571 1308.473999,2036.266724 
	C1299.162354,2036.083984 1289.838623,2036.000854 1280.532227,2036.287231 
	C1276.175781,2036.421387 1275.479614,2034.294556 1275.794800,2028.890259 
M1247.534912,2198.998047 
	C1247.534912,2210.652344 1247.518555,2222.306885 1247.539551,2233.961182 
	C1247.560791,2245.759033 1247.576904,2245.778076 1258.874756,2245.790283 
	C1275.190796,2245.808105 1291.507080,2245.822266 1307.822876,2245.766357 
	C1310.379272,2245.757568 1312.934326,2245.370850 1316.275879,2245.093750 
	C1315.921631,2237.120605 1317.842529,2229.642822 1314.883057,2221.293945 
	C1300.949829,2221.293945 1287.134521,2221.293945 1272.909912,2221.293945 
	C1272.909912,2214.414307 1272.909912,2208.553467 1272.909912,2201.604492 
	C1285.186279,2201.604492 1297.335815,2201.604492 1309.776245,2201.604492 
	C1310.500366,2193.069336 1311.448364,2185.621338 1308.969238,2177.259521 
	C1296.925415,2177.259521 1285.112549,2177.259521 1273.256836,2177.259521 
	C1273.256836,2171.123535 1273.256836,2166.051514 1273.256836,2159.988281 
	C1287.861816,2159.988281 1301.689087,2159.988281 1315.829224,2159.988281 
	C1316.531860,2151.551758 1317.435181,2144.128418 1315.072876,2136.205322 
	C1295.432007,2136.205322 1276.148926,2136.160400 1256.866211,2136.224854 
	C1247.881348,2136.254883 1247.595703,2136.554443 1247.555298,2146.052002 
	C1247.483032,2163.033691 1247.535034,2180.016113 1247.534912,2198.998047 
M1596.808472,2008.239868 
	C1584.066040,1993.922729 1567.730347,1987.847778 1548.955566,1987.572021 
	C1538.637939,1987.420410 1528.316162,1987.505859 1517.996582,1987.558105 
	C1507.812622,1987.609497 1507.554688,1987.856689 1507.545898,1998.427612 
	C1507.516846,2033.048828 1507.534180,2067.669922 1507.537476,2102.291260 
	C1507.537720,2103.955566 1507.483765,2105.626709 1507.611694,2107.282471 
	C1507.945435,2111.606934 1510.141357,2113.968018 1514.679443,2113.791260 
	C1530.586914,2113.171387 1546.635742,2113.669189 1562.364380,2111.657959 
	C1579.187866,2109.506592 1593.313477,2100.885986 1601.539551,2085.519775 
	C1615.421753,2059.588379 1613.993164,2033.984619 1596.808472,2008.239868 
M1891.632935,2147.495850 
	C1872.627686,2132.868652 1851.843628,2130.981934 1830.861206,2141.460693 
	C1810.500977,2151.628662 1800.458618,2169.034180 1800.066895,2192.197510 
	C1799.617432,2218.774902 1821.539307,2243.209229 1847.078857,2247.200928 
	C1875.215698,2251.598877 1899.974243,2234.664307 1908.512207,2213.435303 
	C1916.737427,2192.983643 1913.388062,2165.723145 1891.632935,2147.495850 
M1738.497925,2210.993408 
	C1738.497925,2194.468018 1738.497925,2177.942627 1738.497925,2160.885498 
	C1741.866943,2160.717041 1744.125610,2160.533691 1746.386353,2160.502197 
	C1766.762695,2160.217041 1766.775146,2160.224365 1765.729736,2139.951904 
	C1765.682739,2139.040771 1765.042358,2138.160156 1764.485718,2136.791992 
	C1739.121338,2136.791992 1713.739136,2136.791992 1688.087769,2136.791992 
	C1688.087769,2144.890869 1688.087769,2152.360840 1688.087769,2160.438232 
	C1696.893188,2160.438232 1705.130005,2160.438232 1714.172607,2160.438232 
	C1714.172607,2170.313477 1714.172607,2179.593018 1714.172607,2188.872314 
	C1714.172607,2198.521729 1714.066772,2208.172363 1714.203247,2217.819824 
	C1714.332764,2226.966064 1713.590576,2236.184082 1714.722534,2245.287354 
	C1723.203979,2245.287354 1730.392334,2245.287354 1738.497925,2245.287354 
	C1738.497925,2234.172363 1738.497925,2223.580078 1738.497925,2210.993408 
M1794.465088,2226.770264 
	C1794.465088,2196.916992 1794.465088,2167.063721 1794.465088,2136.207520 
	C1787.765137,2136.207520 1782.173584,2136.405273 1776.602539,2136.150635 
	C1771.351074,2135.910645 1769.504395,2138.376709 1769.513428,2143.302490 
	C1769.572388,2175.217529 1769.544189,2207.132812 1769.549438,2239.047852 
	C1769.549561,2239.711914 1769.552612,2240.383545 1769.647095,2241.038330 
	C1770.088013,2244.091797 1771.748047,2245.787842 1774.955688,2245.780029 
	C1781.147339,2245.765137 1787.339111,2245.775635 1794.464966,2245.775635 
	C1794.464966,2239.216553 1794.464966,2233.949951 1794.465088,2226.770264 
M1871.269775,1957.518433 
	C1870.408569,1956.598511 1869.547485,1955.678589 1868.471069,1954.528809 
	C1867.946289,1955.637451 1867.622070,1956.021729 1867.709595,1956.184570 
	C1868.509277,1957.672607 1869.380859,1959.122070 1870.231445,1960.582764 
	C1870.626221,1959.932617 1871.021118,1959.282593 1871.269775,1957.518433 
z"/>
<path fill="#DC001F" opacity="1.000000" stroke="none" 
	d="
M1668.356934,1613.798828 
	C1664.612305,1613.808838 1661.887207,1613.882446 1661.858276,1617.748657 
	C1661.840942,1620.080811 1661.789795,1622.412964 1661.789673,1624.745117 
	C1661.785767,1696.720581 1661.786377,1768.695923 1661.786255,1840.671387 
	C1661.786255,1843.922974 1661.786377,1847.174683 1661.786377,1851.662476 
	C1666.342285,1851.662476 1669.900635,1851.662598 1673.458984,1851.662598 
	C1726.440918,1851.662598 1779.422729,1851.662231 1832.404663,1851.663818 
	C1835.070435,1851.663940 1837.739624,1851.770020 1840.401001,1851.667603 
	C1844.647461,1851.504150 1847.502197,1853.044922 1848.168701,1857.546387 
	C1848.700195,1861.135376 1849.674561,1864.722290 1849.691772,1868.313721 
	C1849.821167,1895.303833 1849.866943,1922.295776 1849.658569,1949.284790 
	C1849.623901,1953.767700 1848.224365,1958.240112 1847.394287,1963.074585 
	C1843.505615,1963.295654 1840.586548,1963.605835 1837.667480,1963.606567 
	C1746.365356,1963.632935 1655.063110,1963.636597 1563.760986,1963.620728 
	C1551.559448,1963.618530 1550.232544,1962.273560 1550.230835,1949.661499 
	C1550.212036,1805.044189 1550.212036,1660.426880 1550.231934,1515.809570 
	C1550.233521,1504.331787 1550.784912,1503.760010 1561.999146,1503.758301 
	C1654.300781,1503.744019 1746.602539,1503.762451 1838.904175,1503.805908 
	C1841.498535,1503.807129 1844.092651,1504.197998 1847.689453,1504.487915 
	C1848.407349,1509.597046 1849.636230,1514.414917 1849.670898,1519.241211 
	C1849.862183,1545.897461 1849.787231,1572.555786 1849.723633,1599.213257 
	C1849.717285,1601.839722 1849.184448,1604.466553 1848.870972,1607.090210 
	C1848.401855,1611.016113 1845.750244,1612.907715 1842.234131,1613.441162 
	C1839.295166,1613.886963 1836.260132,1613.777954 1833.267578,1613.778931 
	C1778.619507,1613.795776 1723.971313,1613.792114 1668.356934,1613.798828 
z"/>
<path fill="#DC001F" opacity="1.000000" stroke="none" 
	d="
M1372.000000,1503.796875 
	C1417.999268,1503.796875 1462.998535,1503.795898 1507.997803,1503.800049 
	C1510.664185,1503.800293 1513.330933,1503.820190 1515.996826,1503.866333 
	C1519.585938,1503.928467 1521.528564,1505.963379 1522.006470,1509.332764 
	C1522.332031,1511.628296 1522.354004,1513.979492 1522.355835,1516.306030 
	C1522.377197,1544.305542 1522.369507,1572.305176 1522.368286,1600.304688 
	C1522.368286,1601.304688 1522.399658,1602.307129 1522.341431,1603.304199 
	C1521.824951,1612.157837 1520.489868,1613.515259 1511.503052,1613.526367 
	C1477.170288,1613.568726 1442.837402,1613.538208 1408.504639,1613.538086 
	C1392.504883,1613.537964 1376.505249,1613.526733 1360.505615,1613.572266 
	C1358.598389,1613.577637 1356.692261,1613.910522 1354.316895,1614.136108 
	C1354.316895,1634.213501 1354.316895,1653.688477 1354.316895,1674.249512 
	C1358.376221,1674.249512 1361.951050,1674.249634 1365.525757,1674.249634 
	C1401.525146,1674.249756 1437.524658,1674.232544 1473.524048,1674.259521 
	C1485.162964,1674.268311 1487.693481,1676.596802 1487.741577,1688.166748 
	C1487.860596,1716.832397 1487.838379,1745.499268 1487.706543,1774.164795 
	C1487.690063,1777.738770 1486.669678,1781.307983 1485.942017,1785.989502 
	C1442.040283,1785.989502 1398.559814,1785.989502 1353.781372,1785.989502 
	C1353.781372,1790.687988 1353.781494,1794.238281 1353.781494,1797.788574 
	C1353.781372,1848.121094 1353.783081,1898.453735 1353.775269,1948.786255 
	C1353.774780,1951.451294 1353.921631,1954.144897 1353.593994,1956.774658 
	C1353.082642,1960.881348 1350.822876,1963.458984 1346.402100,1963.582886 
	C1345.069702,1963.620239 1343.736084,1963.630127 1342.403076,1963.630127 
	C1312.736938,1963.630371 1283.070557,1963.662842 1253.404541,1963.605957 
	C1242.686768,1963.585327 1241.902344,1962.743896 1241.621582,1952.336060 
	C1241.567749,1950.337524 1241.609985,1948.336426 1241.609985,1946.336426 
	C1241.609741,1805.005371 1241.608765,1663.674194 1241.610596,1522.343140 
	C1241.610840,1503.789307 1241.617188,1503.793945 1260.001709,1503.795654 
	C1297.001099,1503.799194 1334.000610,1503.796875 1372.000000,1503.796875 
z"/>
<path fill="#DC001F" opacity="1.000000" stroke="none" 
	d="
M1895.282349,1950.749756 
	C1886.828613,1941.773682 1879.097900,1933.175415 1874.595459,1922.140015 
	C1863.314087,1894.490601 1867.457764,1868.917358 1884.990112,1845.333252 
	C1895.306030,1831.456421 1909.664185,1823.354858 1926.148315,1818.804932 
	C1930.255981,1817.671021 1934.385254,1816.615479 1938.663452,1814.875977 
	C1918.145752,1812.130005 1900.834351,1803.320068 1887.336304,1787.998657 
	C1873.549683,1772.349243 1866.598022,1753.434204 1868.642456,1732.850952 
	C1872.729736,1691.701172 1902.336060,1665.244385 1944.097412,1661.138428 
	C1939.764038,1659.709839 1937.315186,1658.523071 1934.742310,1658.112061 
	C1903.142456,1653.064697 1882.431885,1634.928833 1871.912476,1605.154053 
	C1866.698486,1590.396973 1867.038696,1575.242310 1871.921997,1560.295532 
	C1882.905640,1526.677734 1913.985962,1504.920654 1947.455933,1506.462280 
	C1974.961182,1507.729004 2002.337280,1525.871948 2013.930176,1553.160522 
	C2021.245117,1570.379150 2021.752441,1587.899658 2016.965088,1604.797119 
	C2011.807129,1623.002441 2000.179810,1637.881470 1983.243042,1647.721680 
	C1973.967773,1653.110474 1964.291016,1657.333496 1953.422607,1658.192383 
	C1952.443848,1658.269775 1951.429443,1658.457275 1950.535767,1658.837891 
	C1950.004517,1659.064087 1949.676758,1659.768066 1948.601929,1661.021973 
	C1968.986328,1664.896606 1987.233032,1672.116089 2001.037598,1688.004028 
	C2014.819336,1703.865479 2020.660278,1722.129150 2019.734985,1742.983032 
	C2018.897095,1761.869385 2011.103027,1777.727417 1998.510742,1791.076660 
	C1985.825562,1804.524170 1969.507202,1811.762085 1948.864136,1814.512207 
	C1956.512573,1816.921143 1961.803345,1818.656860 1967.135620,1820.254272 
	C1984.772217,1825.537964 1997.750610,1836.416382 2008.002930,1851.699341 
	C2021.288940,1871.504639 2022.618042,1893.146484 2016.967896,1914.708984 
	C2012.956909,1930.016235 2003.394531,1943.314209 1990.012085,1953.152344 
	C1969.915894,1967.926147 1947.866455,1971.898438 1923.947388,1965.625854 
	C1913.587158,1962.908813 1904.465454,1957.452026 1895.282349,1950.749756 
z"/>
<path fill="#DC001F" opacity="1.000000" stroke="none" 
	d="
M1814.817139,1687.185547 
	C1841.721436,1719.182617 1836.506958,1768.630005 1802.217651,1794.454590 
	C1767.799072,1820.376221 1713.359741,1810.000488 1692.998169,1767.365479 
	C1684.735962,1750.065430 1683.618164,1732.266724 1688.819458,1713.253052 
	C1698.162842,1679.097778 1733.494995,1657.633179 1765.513062,1660.560303 
	C1785.018555,1662.343628 1801.600464,1671.359375 1814.817139,1687.185547 
z"/>
<path fill="#E0E0E0" opacity="1.000000" stroke="none" 
	d="
M1587.444092,2242.660645 
	C1553.330322,2258.324707 1515.442627,2236.258789 1509.058716,2202.463623 
	C1501.603394,2162.996582 1534.812866,2134.042969 1563.425659,2135.361084 
	C1580.473267,2136.146240 1593.441284,2141.292236 1603.591553,2153.552734 
	C1600.315430,2162.476074 1596.257202,2167.836670 1589.605713,2171.881592 
	C1585.604004,2169.197021 1581.656616,2166.210205 1577.402954,2163.753418 
	C1559.240723,2153.263916 1538.811035,2167.332275 1534.036743,2183.628662 
	C1528.636963,2202.060303 1543.369995,2221.565918 1562.706299,2223.244385 
	C1570.506226,2223.921387 1577.425537,2220.006348 1583.669800,2215.282471 
	C1590.899658,2209.812744 1591.515137,2209.969482 1596.941162,2217.196533 
	C1599.476807,2220.573730 1602.045044,2223.927002 1605.109741,2227.964355 
	C1616.302002,2203.634766 1626.981201,2180.422363 1637.659058,2157.209229 
	C1640.433350,2151.177979 1642.982910,2145.027588 1646.097534,2139.177734 
	C1647.182373,2137.139893 1649.651001,2134.567139 1651.501343,2134.556396 
	C1653.462891,2134.544678 1656.247314,2136.879639 1657.272339,2138.899902 
	C1661.773804,2147.773438 1665.801025,2156.889648 1669.941406,2165.944580 
	C1680.291138,2188.578857 1690.607910,2211.228271 1700.942261,2233.869873 
	C1701.771606,2235.686768 1702.880371,2237.418213 1703.427734,2239.313721 
	C1704.630127,2243.477539 1703.191895,2245.562256 1698.646606,2245.752930 
	C1692.664185,2246.004150 1686.663208,2245.814697 1679.799561,2245.814697 
	C1678.167725,2242.468262 1676.298950,2239.027344 1674.791870,2235.434326 
	C1673.330566,2231.950439 1671.166748,2230.348389 1667.202881,2230.419189 
	C1655.553345,2230.626953 1643.897461,2230.492920 1631.342407,2230.492920 
	C1629.705566,2233.879883 1627.768311,2237.293213 1626.384521,2240.917969 
	C1624.978516,2244.600830 1622.596191,2246.072266 1618.782593,2245.852539 
	C1616.125977,2245.699707 1613.440552,2245.658936 1610.790283,2245.860596 
	C1604.429199,2246.344238 1598.645264,2246.100342 1598.676392,2236.404785 
	C1594.406250,2238.800781 1591.298584,2240.544434 1587.444092,2242.660645 
M1645.222900,2152.330811 
	C1631.849365,2181.788330 1617.723389,2210.915039 1604.744019,2241.067627 
	C1611.106812,2241.067627 1616.011719,2241.067627 1620.662109,2241.067627 
	C1623.390259,2235.618652 1625.870728,2230.664062 1628.021118,2226.369141 
	C1644.647949,2226.369141 1660.178223,2226.369141 1675.685913,2226.369141 
	C1678.177612,2231.546143 1680.468872,2236.306885 1682.818848,2241.189453 
	C1687.886841,2241.189453 1692.753784,2241.189453 1699.156372,2241.189453 
	C1683.319580,2206.782715 1667.894043,2173.269775 1651.768433,2138.235840 
	C1649.194580,2143.799316 1647.533691,2147.389160 1645.222900,2152.330811 
M1568.111206,2243.187012 
	C1579.977173,2241.790039 1590.408203,2237.600342 1598.727051,2227.874756 
	C1595.782959,2223.855225 1593.122192,2220.222412 1590.492065,2216.631348 
	C1568.443115,2231.569336 1552.090088,2231.171875 1538.072266,2215.909912 
	C1525.288330,2201.991455 1524.771851,2183.062500 1536.784302,2168.705322 
	C1550.404663,2152.426270 1567.393921,2151.452393 1590.690674,2166.100586 
	C1593.293091,2162.478271 1595.931519,2158.805908 1598.498169,2155.233154 
	C1583.109619,2137.741699 1558.927002,2136.629639 1542.415039,2144.676270 
	C1522.708862,2154.279297 1510.098145,2176.637451 1512.768677,2196.910645 
	C1516.344604,2224.058105 1538.931763,2243.805664 1568.111206,2243.187012 
z"/>
<path fill="#D6D6D6" opacity="1.000000" stroke="none" 
	d="
M1503.881348,2164.021729 
	C1503.881226,2178.335938 1504.033691,2191.657227 1503.844971,2204.973877 
	C1503.567017,2224.586182 1491.948486,2240.281250 1473.622437,2246.220459 
	C1448.923340,2254.225098 1422.352173,2237.019287 1419.498901,2211.191406 
	C1418.807373,2204.931641 1418.039551,2198.680420 1417.306885,2192.425293 
	C1416.577393,2192.408203 1415.847900,2192.390869 1415.118408,2192.373535 
	C1414.707397,2194.341309 1414.081909,2196.291748 1413.917725,2198.280029 
	C1411.777954,2224.204590 1393.226929,2244.392822 1363.058960,2245.818604 
	C1354.420776,2246.227051 1345.746826,2245.885742 1337.089355,2245.880615 
	C1324.135498,2245.872803 1324.128540,2245.869873 1324.120605,2232.398193 
	C1324.112061,2218.080078 1324.118530,2203.761719 1324.118530,2189.443604 
	C1324.118530,2175.458496 1324.030518,2161.472168 1324.180054,2147.488770 
	C1324.217651,2143.972900 1325.016113,2140.464844 1325.580078,2136.049805 
	C1342.259399,2136.786133 1358.172607,2134.435059 1373.957031,2137.739014 
	C1396.695312,2142.498535 1412.393921,2160.789307 1413.905029,2183.902832 
	C1414.075317,2186.508545 1414.577515,2189.092773 1416.068970,2191.555908 
	C1419.928711,2173.421875 1416.017700,2154.920898 1419.514404,2136.586182 
	C1427.617310,2136.586182 1434.817993,2136.586182 1443.049683,2136.586182 
	C1443.344482,2140.456055 1443.829102,2143.979248 1443.844971,2147.504395 
	C1443.924438,2165.151855 1443.875610,2182.800293 1443.888306,2200.448242 
	C1443.889893,2202.777100 1443.731934,2205.145020 1444.082031,2207.427979 
	C1445.310303,2215.438965 1452.083130,2221.873291 1460.157715,2222.941162 
	C1467.064209,2223.854492 1474.954956,2218.695801 1477.457886,2210.748535 
	C1478.826416,2206.403320 1479.303345,2201.634033 1479.362915,2197.045410 
	C1479.578613,2180.399170 1479.447876,2163.748535 1479.447876,2147.099365 
	C1479.447876,2143.823242 1479.447876,2140.547363 1479.447876,2136.757324 
	C1487.796265,2136.757324 1495.221313,2136.757324 1503.881348,2136.757324 
	C1503.881348,2145.915771 1503.881348,2154.471436 1503.881348,2164.021729 
M1329.603760,2151.275391 
	C1329.603760,2181.121338 1329.603760,2210.967041 1329.603760,2241.504639 
	C1338.832031,2241.504639 1346.773560,2241.609863 1354.710327,2241.460693 
	C1358.694092,2241.385986 1362.692627,2241.021729 1366.644409,2240.490234 
	C1391.738403,2237.115967 1406.434692,2222.804443 1409.173706,2197.703857 
	C1411.570801,2175.738281 1403.840698,2150.084717 1373.948853,2142.688477 
	C1359.671509,2139.156006 1344.993042,2140.366455 1330.067383,2140.762451 
	C1329.885376,2144.129883 1329.744629,2146.736572 1329.603760,2151.275391 
M1432.762573,2230.039551 
	C1449.736328,2251.073975 1486.959229,2247.325439 1496.840210,2217.062012 
	C1498.560791,2211.792480 1499.062500,2205.949463 1499.152954,2200.355713 
	C1499.437744,2182.725830 1499.291504,2165.088135 1499.217773,2147.454102 
	C1499.208740,2145.293457 1498.626343,2143.135254 1498.343994,2141.210205 
	C1493.076782,2141.210205 1488.642456,2141.210205 1484.359741,2141.210205 
	C1484.096802,2142.579346 1483.863037,2143.231934 1483.861816,2143.885010 
	C1483.827881,2162.184814 1483.910889,2180.485596 1483.734009,2198.783691 
	C1483.692749,2203.055908 1483.333862,2207.477539 1482.165283,2211.556152 
	C1479.290039,2221.591797 1470.445679,2228.002441 1460.738770,2227.761475 
	C1450.621582,2227.510742 1441.889648,2220.142090 1439.830566,2209.623047 
	C1439.006836,2205.415283 1438.808960,2201.035889 1438.776978,2196.731201 
	C1438.658936,2180.760986 1438.758301,2164.789795 1438.697998,2148.818848 
	C1438.688354,2146.274902 1438.279785,2143.732422 1438.057007,2141.205322 
	C1432.942627,2141.205322 1428.526611,2141.205322 1423.857178,2141.205322 
	C1423.857178,2163.858643 1423.727051,2185.802490 1423.926758,2207.743164 
	C1423.998291,2215.609863 1427.139282,2222.606934 1432.762573,2230.039551 
z"/>
<path fill="#E0E0E0" opacity="1.000000" stroke="none" 
	d="
M1999.654663,2009.918213 
	C1990.070068,2023.131104 1980.949951,2035.791992 1971.522339,2048.879883 
	C1972.817993,2050.820312 1973.956787,2052.748779 1975.308350,2054.514404 
	C1986.620361,2069.290283 1997.978882,2084.030518 2009.301147,2098.798340 
	C2010.715332,2100.642578 2012.226196,2102.468506 2013.296997,2104.510254 
	C2016.186035,2110.017578 2014.233032,2113.352783 2008.037598,2113.821533 
	C2007.706177,2113.846680 2007.371216,2113.834473 2007.038208,2113.825439 
	C1980.541626,2113.097656 1989.261475,2118.258789 1972.680786,2097.366455 
	C1965.674316,2088.538330 1958.949829,2079.486084 1951.041992,2069.157471 
	C1950.471191,2072.884033 1949.893921,2074.979736 1949.872070,2077.081543 
	C1949.771851,2086.743896 1949.652710,2096.412109 1949.898193,2106.069092 
	C1950.025024,2111.053711 1948.075439,2113.663818 1943.130493,2113.780273 
	C1938.135010,2113.898193 1933.134766,2113.813232 1928.136597,2113.815430 
	C1924.098755,2113.817139 1922.006592,2111.624268 1921.642822,2107.774414 
	C1921.424072,2105.460449 1921.507080,2103.114746 1921.506592,2100.783447 
	C1921.499878,2067.128418 1921.499756,2033.473511 1921.507568,1999.818604 
	C1921.508057,1997.487793 1920.941040,1994.876587 1921.801270,1992.902710 
	C1922.713623,1990.809204 1924.874390,1988.009644 1926.735107,1987.810669 
	C1932.661011,1987.176758 1938.705566,1987.471680 1944.695312,1987.673950 
	C1949.056641,1987.821045 1949.930786,1990.787109 1949.867920,1994.603027 
	C1949.730957,2002.931152 1949.826782,2011.263184 1949.827515,2019.593628 
	C1949.827637,2022.499023 1949.827393,2025.404297 1949.827393,2030.508423 
	C1952.595581,2027.565552 1954.151489,2026.233887 1955.317017,2024.620117 
	C1962.907227,2014.111816 1970.496338,2003.600586 1977.901978,1992.962280 
	C1980.604736,1989.079712 1983.742554,1987.133057 1988.681519,1987.411987 
	C1995.566040,1987.801025 2002.489014,1987.510010 2009.534790,1987.510010 
	C2012.275024,1998.402588 2003.097412,2002.484497 1999.654663,2009.918213 
M1944.433960,2007.162231 
	C1944.347290,2002.336548 1944.260742,1997.510986 1944.183105,1993.190918 
	C1937.600464,1993.190918 1932.467773,1993.190918 1927.275879,1993.190918 
	C1927.275879,2031.794434 1927.275879,2069.643311 1927.275879,2107.506836 
	C1933.256104,2107.506836 1938.694336,2107.506836 1944.573242,2107.506836 
	C1944.573242,2089.820312 1944.570923,2072.848877 1944.601440,2055.877197 
	C1944.601807,2055.672607 1945.001099,2055.428467 1945.257324,2055.274658 
	C1945.521362,2055.115967 1945.838379,2055.045898 1946.594238,2054.766113 
	C1948.539917,2057.199219 1950.639404,2059.733398 1952.640991,2062.342529 
	C1963.182129,2076.083984 1973.606323,2089.916992 1984.322144,2103.520508 
	C1985.968384,2105.610596 1988.790405,2107.686279 1991.292358,2108.003174 
	C1996.664307,2108.683350 2002.182007,2108.211670 2009.447510,2108.211670 
	C1993.637085,2087.549316 1979.145752,2068.611084 1964.489624,2049.457275 
	C1971.436523,2039.796997 1978.085449,2030.678223 1984.596069,2021.461792 
	C1991.167358,2012.159668 1998.481445,2003.328613 2004.803711,1992.643799 
	C1997.172241,1992.643799 1991.220093,1992.643799 1984.851929,1992.643799 
	C1978.502563,2001.489136 1972.197754,2010.465332 1965.686279,2019.289062 
	C1959.181152,2028.104126 1953.323364,2037.458496 1944.433960,2044.842773 
	C1944.433960,2032.933838 1944.433960,2021.024902 1944.433960,2007.162231 
z"/>
<path fill="#E0E0E0" opacity="1.000000" stroke="none" 
	d="
M1835.828979,2050.119385 
	C1835.105103,2066.267578 1848.278687,2084.761475 1869.209229,2087.000732 
	C1878.041382,2087.945801 1886.034180,2084.421631 1893.115845,2079.124756 
	C1894.969727,2077.738281 1896.532227,2075.926270 1898.477051,2074.705566 
	C1901.348755,2072.903076 1904.140747,2073.046631 1906.301880,2076.091064 
	C1910.310913,2081.738037 1914.335571,2087.373535 1918.187866,2092.781006 
	C1898.904053,2119.128906 1858.781860,2123.793457 1830.197998,2100.071533 
	C1800.436523,2075.372314 1800.590698,2030.637817 1825.784424,2005.415283 
	C1852.468018,1978.701050 1894.975708,1979.845459 1918.407959,2008.524292 
	C1914.443115,2014.015503 1910.472534,2020.008911 1905.970093,2025.571655 
	C1903.115601,2029.098389 1899.931641,2028.093018 1896.459595,2025.393799 
	C1892.052124,2021.967163 1887.373047,2018.396606 1882.217285,2016.515991 
	C1864.691284,2010.123291 1843.702393,2021.261597 1837.823975,2039.602661 
	C1836.823730,2042.723999 1836.478027,2046.055298 1835.828979,2050.119385 
M1835.353638,2004.170654 
	C1833.618042,2005.726807 1831.799561,2007.200562 1830.159058,2008.851196 
	C1800.227173,2038.966431 1809.557739,2088.287598 1848.396973,2105.267822 
	C1869.163574,2114.346924 1895.895630,2111.299316 1911.472168,2092.592529 
	C1910.025391,2090.442383 1908.628296,2088.175537 1907.037354,2086.053955 
	C1905.322021,2083.766602 1903.425171,2081.615479 1901.635986,2079.439697 
	C1878.414185,2096.748291 1857.627930,2096.228027 1841.306030,2078.433105 
	C1826.935303,2062.765381 1826.723389,2039.816040 1840.802368,2023.881348 
	C1856.812012,2005.761597 1877.477417,2004.954590 1902.079224,2022.024780 
	C1905.254761,2017.643555 1908.441895,2013.246094 1911.529785,2008.985596 
	C1892.639526,1988.304688 1859.840088,1985.337891 1835.353638,2004.170654 
z"/>
<path fill="#E6E6E6" opacity="1.000000" stroke="none" 
	d="
M1331.534912,2028.002319 
	C1331.536743,2016.353394 1331.538086,2005.703613 1331.539795,1995.053711 
	C1331.540649,1990.400879 1333.167114,1987.477051 1338.501221,1987.510254 
	C1361.129639,1987.651123 1383.758911,1987.637939 1406.387695,1987.742554 
	C1407.303955,1987.746826 1408.217285,1988.372070 1410.398193,1989.173096 
	C1410.398193,1995.999268 1410.559082,2003.197388 1410.343262,2010.384033 
	C1410.192383,2015.413452 1406.395508,2015.806030 1402.489990,2015.799072 
	C1391.174561,2015.778564 1379.859009,2015.793579 1368.543579,2015.794678 
	C1365.955078,2015.794800 1363.366455,2015.794678 1360.290771,2015.794678 
	C1360.290771,2022.662720 1360.290771,2028.818726 1360.290771,2035.543701 
	C1371.611450,2035.543701 1382.552124,2035.512451 1393.492432,2035.552856 
	C1403.739868,2035.590698 1403.742432,2035.624146 1403.792603,2046.244751 
	C1403.805176,2048.907227 1403.830200,2051.570068 1403.787842,2054.232178 
	C1403.646240,2063.128906 1403.175781,2063.651855 1393.930664,2063.771729 
	C1385.611816,2063.879883 1377.290405,2063.794922 1368.970215,2063.794922 
	C1366.341919,2063.794922 1363.713745,2063.794922 1359.794678,2063.794922 
	C1359.794678,2067.691650 1359.794800,2071.206543 1359.794800,2074.721436 
	C1359.794800,2078.011230 1359.794678,2081.300781 1359.794678,2085.503662 
	C1376.608643,2085.503662 1392.739136,2085.503662 1409.111694,2085.503662 
	C1411.655518,2094.440186 1409.921997,2102.696777 1410.502808,2111.996094 
	C1407.288208,2112.615479 1404.233276,2113.691650 1401.170166,2113.715332 
	C1381.202881,2113.869141 1361.233643,2113.849854 1341.265503,2113.768799 
	C1332.608398,2113.733643 1331.604980,2112.767334 1331.569824,2103.882812 
	C1331.471069,2078.922607 1331.535156,2053.961914 1331.534912,2028.002319 
M1367.213867,2040.340942 
	C1363.309570,2040.340942 1359.405396,2040.340942 1355.164795,2040.340942 
	C1355.164795,2029.881714 1355.164795,2020.426880 1355.164795,2009.942383 
	C1372.223145,2009.942383 1388.694824,2009.942383 1405.235596,2009.942383 
	C1405.235596,2003.725220 1405.235596,1998.552368 1405.235596,1993.043213 
	C1382.339111,1993.043213 1359.934204,1993.043213 1337.615967,1993.043213 
	C1335.743774,2007.719482 1336.337158,2100.997559 1338.260498,2107.778809 
	C1360.400879,2109.414795 1398.685425,2108.719238 1405.070312,2106.705322 
	C1405.070312,2101.358154 1405.070312,2096.167236 1405.070312,2089.945312 
	C1387.998291,2089.945312 1371.558838,2089.945312 1355.064575,2089.945312 
	C1355.064575,2079.004395 1355.064575,2069.152832 1355.064575,2058.244629 
	C1369.673340,2058.244629 1383.793701,2058.244629 1397.734375,2058.244629 
	C1397.734375,2051.726318 1397.734375,2046.299072 1397.734375,2040.340942 
	C1387.726074,2040.340942 1378.445679,2040.340942 1367.213867,2040.340942 
z"/>
<path fill="#E6E6E6" opacity="1.000000" stroke="none" 
	d="
M1448.647461,2064.652832 
	C1447.932251,2070.999023 1447.869141,2076.655029 1447.912598,2082.310059 
	C1447.919922,2083.258057 1448.388550,2084.202393 1448.777588,2085.643066 
	C1464.686890,2085.643066 1480.625122,2085.643066 1497.567383,2085.643066 
	C1499.307861,2094.445312 1498.255859,2102.916016 1498.190430,2112.370850 
	C1494.843506,2112.865723 1491.705078,2113.712646 1488.561279,2113.732422 
	C1468.924561,2113.855713 1449.286499,2113.842529 1429.649292,2113.773438 
	C1420.434326,2113.740967 1419.579346,2112.900146 1419.561401,2103.266846 
	C1419.495605,2067.985840 1419.494873,2032.704834 1419.562988,1997.424072 
	C1419.580322,1988.396851 1420.407715,1987.595093 1429.124390,1987.565063 
	C1449.427368,1987.495239 1469.730591,1987.522583 1490.033691,1987.572021 
	C1492.306030,1987.577515 1494.577393,1987.978882 1497.255615,1988.235596 
	C1499.566284,1995.918091 1498.364990,2003.537964 1498.234253,2011.017212 
	C1498.158203,2015.363159 1494.378052,2015.794678 1490.852417,2015.792358 
	C1480.867310,2015.785645 1470.882080,2015.793213 1460.896973,2015.794678 
	C1456.941406,2015.795166 1452.985718,2015.794678 1448.418213,2015.794678 
	C1448.418213,2022.373535 1448.418213,2028.506714 1448.418213,2035.544434 
	C1460.055298,2035.544434 1471.596191,2035.472412 1483.135498,2035.568726 
	C1491.457764,2035.638306 1491.839233,2035.840576 1491.739868,2043.895142 
	C1491.480591,2064.920898 1495.498535,2063.862061 1472.295288,2063.806641 
	C1464.642090,2063.788330 1456.988770,2063.906250 1448.647461,2064.652832 
M1472.946045,2108.256348 
	C1479.778809,2108.153564 1486.611572,2108.051025 1493.149780,2107.952881 
	C1493.149780,2101.509277 1493.149780,2096.320068 1493.149780,2090.103516 
	C1476.151489,2090.103516 1459.700806,2090.103516 1443.318848,2090.103516 
	C1443.318848,2078.910400 1443.318848,2068.798584 1443.318848,2058.017334 
	C1457.967041,2058.017334 1471.850464,2058.017334 1485.824707,2058.017334 
	C1485.824707,2051.866943 1485.824707,2046.442505 1485.824707,2040.264893 
	C1471.330078,2040.264893 1457.462769,2040.264893 1443.107178,2040.264893 
	C1443.107178,2030.029907 1443.107178,2020.571899 1443.107178,2010.076660 
	C1460.102783,2010.076660 1476.561157,2010.076660 1493.722778,2010.076660 
	C1493.722778,2006.454346 1493.804199,2003.859741 1493.700928,2001.272705 
	C1493.587769,1998.438477 1493.304077,1995.610962 1493.108643,1992.970215 
	C1469.965454,1992.970215 1447.804443,1992.970215 1425.389771,1992.970215 
	C1425.389771,2031.601929 1425.389771,2069.665771 1425.389771,2108.256348 
	C1441.030029,2108.256348 1455.994263,2108.256348 1472.946045,2108.256348 
z"/>
<path fill="#D6D6D6" opacity="1.000000" stroke="none" 
	d="
M1927.560669,2136.025391 
	C1945.778442,2154.888428 1963.387939,2173.336182 1982.100830,2192.939697 
	C1982.721802,2189.420898 1983.379395,2187.377686 1983.395142,2185.329590 
	C1983.493164,2172.664551 1983.358521,2159.996826 1983.505615,2147.332520 
	C1983.546265,2143.837402 1984.283081,2140.350098 1984.729980,2136.613037 
	C1992.977295,2136.613037 2000.174194,2136.613037 2007.959473,2136.613037 
	C2007.959473,2173.616211 2007.959473,2210.125977 2007.959473,2246.434326 
	C2003.105103,2249.453369 2000.105469,2247.150635 1997.180786,2244.026123 
	C1981.954712,2227.760254 1966.666382,2211.552734 1951.450806,2195.277100 
	C1949.642944,2193.343506 1948.146729,2191.118896 1945.116089,2187.258301 
	C1944.464478,2191.896729 1943.932251,2193.970215 1943.920654,2196.046631 
	C1943.844849,2209.712158 1943.957275,2223.378906 1943.851318,2237.044189 
	C1943.789551,2244.996094 1943.074585,2245.636230 1935.431030,2245.865723 
	C1932.433960,2245.955811 1929.429321,2245.958496 1926.432373,2245.864258 
	C1919.542603,2245.647217 1918.368896,2244.659180 1918.173706,2237.714355 
	C1917.948853,2229.720947 1918.118774,2221.716553 1918.118652,2213.716797 
	C1918.118286,2190.384521 1918.058716,2167.052002 1918.150757,2143.720215 
	C1918.183716,2135.345947 1919.418823,2134.366211 1927.560669,2136.025391 
M1923.603760,2157.281738 
	C1923.603760,2185.121338 1923.603760,2212.960693 1923.603760,2241.091064 
	C1929.030273,2241.091064 1933.202393,2241.091064 1938.221191,2241.091064 
	C1939.148193,2219.852783 1937.965942,2198.891113 1938.993774,2175.649170 
	C1961.438232,2198.849854 1981.596558,2220.558105 2003.323730,2242.822021 
	C2003.323730,2207.607666 2003.323730,2174.493652 2003.323730,2140.964844 
	C1998.329712,2140.964844 1993.859863,2140.964844 1988.384644,2140.964844 
	C1988.384644,2148.310059 1988.384521,2155.218506 1988.384521,2162.127197 
	C1988.384521,2169.451172 1988.611694,2176.784180 1988.317749,2184.096436 
	C1988.049683,2190.765137 1989.695068,2197.649170 1986.866577,2204.959961 
	C1965.873047,2183.105469 1945.519409,2161.917236 1923.603760,2139.103027 
	C1923.603760,2146.194336 1923.603760,2150.792969 1923.603760,2157.281738 
z"/>
<path fill="#E6E6E6" opacity="1.000000" stroke="none" 
	d="
M1275.795410,2029.862549 
	C1275.479614,2034.294556 1276.175781,2036.421387 1280.532227,2036.287231 
	C1289.838623,2036.000854 1299.162354,2036.083984 1308.473999,2036.266724 
	C1311.987915,2036.335571 1315.488159,2037.098145 1319.788086,2037.645386 
	C1319.788086,2045.071045 1319.692627,2051.674561 1319.819946,2058.273438 
	C1319.913452,2063.130371 1317.400635,2064.543945 1312.963623,2064.495117 
	C1300.998901,2064.363770 1289.031738,2064.450195 1275.794678,2064.450195 
	C1275.794678,2074.979736 1275.859497,2085.150146 1275.781128,2095.319824 
	C1275.621460,2116.048340 1278.546631,2113.708008 1257.082886,2113.758301 
	C1248.865601,2113.777588 1247.611206,2112.665527 1247.586548,2104.703857 
	C1247.475342,2068.773926 1247.485229,2032.843384 1247.573486,1996.913330 
	C1247.593994,1988.536865 1248.580078,1987.604004 1256.646851,1987.571167 
	C1277.273071,1987.487183 1297.900146,1987.518677 1318.526489,1987.582031 
	C1320.765869,1987.588867 1323.003540,1988.106079 1326.417725,1988.533936 
	C1326.417725,1996.104614 1326.425415,2003.313721 1326.414917,2010.522705 
	C1326.408203,2015.092773 1323.437256,2015.828857 1319.715942,2015.810669 
	C1309.070190,2015.758789 1298.424072,2015.793823 1287.778076,2015.794556 
	C1284.164917,2015.794800 1280.551880,2015.794678 1275.794800,2015.794678 
	C1275.794800,2020.491455 1275.794800,2024.690796 1275.795410,2029.862549 
M1252.708008,2080.974854 
	C1252.708008,2089.880127 1252.708008,2098.785645 1252.708008,2107.529541 
	C1259.352539,2107.529541 1264.820923,2107.529541 1271.066284,2107.529541 
	C1271.066284,2091.273438 1271.066284,2075.735840 1271.066284,2059.481445 
	C1285.752441,2059.481445 1299.647583,2059.481445 1313.925537,2059.481445 
	C1313.925537,2053.282471 1313.925537,2047.845947 1313.925537,2041.292480 
	C1299.294922,2041.292480 1285.184570,2041.292480 1270.573120,2041.292480 
	C1270.683960,2030.351929 1270.175903,2020.533691 1270.914307,2010.363647 
	C1280.511963,2010.363647 1288.830444,2010.403320 1297.148438,2010.352417 
	C1305.305176,2010.302368 1313.461426,2010.160156 1321.061279,2010.065308 
	C1321.061279,2003.420044 1321.061279,1998.230347 1321.061279,1992.855469 
	C1298.212158,1992.855469 1276.026611,1992.855469 1252.708008,1992.855469 
	C1252.708008,2021.854736 1252.708008,2050.419434 1252.708008,2080.974854 
z"/>
<path fill="#E0E0E0" opacity="1.000000" stroke="none" 
	d="
M1709.310303,2085.384766 
	C1715.521484,2072.573242 1721.870483,2059.826416 1727.911133,2046.935059 
	C1736.628296,2028.331055 1745.153809,2009.636841 1753.680542,1990.944214 
	C1755.185181,1987.645630 1757.285034,1984.635620 1761.021240,1985.788574 
	C1763.384033,1986.517700 1765.847168,1989.077759 1766.943359,1991.432129 
	C1784.150757,2028.391357 1801.170288,2065.438232 1818.164307,2102.496582 
	C1822.135620,2111.156982 1820.436523,2113.640137 1810.783203,2113.822754 
	C1809.120239,2113.854248 1807.424072,2113.615967 1805.797852,2113.862305 
	C1796.322510,2115.298584 1789.605347,2112.549805 1787.215332,2102.392334 
	C1786.000366,2097.228516 1782.137329,2096.296631 1777.284302,2096.407715 
	C1765.977783,2096.666748 1754.646118,2096.839111 1743.355591,2096.341797 
	C1737.753174,2096.095215 1734.140503,2097.900391 1732.946411,2103.097412 
	C1730.778809,2112.532715 1724.705811,2114.978516 1715.963013,2113.890137 
	C1712.684326,2113.481934 1709.272949,2114.115723 1706.000977,2113.680908 
	C1700.895386,2113.002197 1699.384033,2110.184326 1701.050049,2105.207275 
	C1702.097290,2102.078369 1703.284546,2098.996338 1703.342285,2095.050781 
	C1703.132324,2092.813232 1703.989380,2091.418213 1705.692627,2090.644287 
	C1707.392578,2089.474609 1708.246460,2087.684082 1709.055908,2085.773926 
	C1709.011475,2085.654297 1709.310425,2085.384766 1709.310303,2085.384766 
M1736.291382,2041.406372 
	C1726.200928,2063.370605 1716.110474,2085.334961 1705.774658,2107.833496 
	C1712.817749,2107.833496 1718.730835,2107.833496 1724.792969,2107.833496 
	C1727.593750,2101.998291 1730.272949,2096.416504 1732.728149,2091.301270 
	C1751.717529,2091.301270 1769.619263,2091.301270 1787.708740,2091.301270 
	C1790.615967,2097.120605 1793.393799,2102.681152 1795.973145,2107.844238 
	C1802.390137,2107.844238 1807.964111,2107.844238 1814.825317,2107.844238 
	C1796.709961,2068.603027 1778.965942,2030.166382 1760.335083,1989.808472 
	C1751.992188,2007.727539 1744.468628,2023.886597 1736.291382,2041.406372 
z"/>
<path fill="#E6E6E6" opacity="1.000000" stroke="none" 
	d="
M1247.534912,2197.998047 
	C1247.535034,2180.016113 1247.483032,2163.033691 1247.555298,2146.052002 
	C1247.595703,2136.554443 1247.881348,2136.254883 1256.866211,2136.224854 
	C1276.148926,2136.160400 1295.432007,2136.205322 1315.072876,2136.205322 
	C1317.435181,2144.128418 1316.531860,2151.551758 1315.829224,2159.988281 
	C1301.689087,2159.988281 1287.861816,2159.988281 1273.256836,2159.988281 
	C1273.256836,2166.051514 1273.256836,2171.123535 1273.256836,2177.259521 
	C1285.112549,2177.259521 1296.925415,2177.259521 1308.969238,2177.259521 
	C1311.448364,2185.621338 1310.500366,2193.069336 1309.776245,2201.604492 
	C1297.335815,2201.604492 1285.186279,2201.604492 1272.909912,2201.604492 
	C1272.909912,2208.553467 1272.909912,2214.414307 1272.909912,2221.293945 
	C1287.134521,2221.293945 1300.949829,2221.293945 1314.883057,2221.293945 
	C1317.842529,2229.642822 1315.921631,2237.120605 1316.275879,2245.093750 
	C1312.934326,2245.370850 1310.379272,2245.757568 1307.822876,2245.766357 
	C1291.507080,2245.822266 1275.190796,2245.808105 1258.874756,2245.790283 
	C1247.576904,2245.778076 1247.560791,2245.759033 1247.539551,2233.961182 
	C1247.518555,2222.306885 1247.534912,2210.652344 1247.534912,2197.998047 
M1286.929443,2197.594482 
	C1293.113647,2197.594482 1299.297852,2197.594482 1305.306763,2197.594482 
	C1305.306763,2191.671143 1305.306763,2187.162842 1305.306763,2181.670654 
	C1292.606567,2181.670654 1280.471069,2181.670654 1268.576782,2181.670654 
	C1268.576782,2172.530762 1268.576782,2164.420166 1268.576782,2155.338379 
	C1283.418213,2155.338379 1297.538086,2155.338379 1311.187988,2155.338379 
	C1311.187988,2149.854248 1311.187988,2145.379639 1311.187988,2140.994629 
	C1291.299561,2140.994629 1272.160156,2140.994629 1252.845215,2140.994629 
	C1252.845215,2174.660156 1252.845215,2207.733154 1252.845215,2241.150391 
	C1272.595459,2241.150391 1291.744629,2241.150391 1311.262451,2241.150391 
	C1311.262451,2235.980225 1311.262451,2231.265869 1311.262451,2226.000000 
	C1303.654907,2226.000000 1296.706055,2226.000000 1289.757080,2226.000000 
	C1282.588867,2226.000000 1275.420654,2226.000000 1268.478149,2226.000000 
	C1268.478149,2215.718018 1268.478149,2206.902100 1268.478149,2197.594482 
	C1274.401978,2197.594482 1279.689697,2197.594482 1286.929443,2197.594482 
z"/>
<path fill="#E6E6E6" opacity="1.000000" stroke="none" 
	d="
M1597.251709,2008.796631 
	C1613.993164,2033.984619 1615.421753,2059.588379 1601.539551,2085.519775 
	C1593.313477,2100.885986 1579.187866,2109.506592 1562.364380,2111.657959 
	C1546.635742,2113.669189 1530.586914,2113.171387 1514.679443,2113.791260 
	C1510.141357,2113.968018 1507.945435,2111.606934 1507.611694,2107.282471 
	C1507.483765,2105.626709 1507.537720,2103.955566 1507.537476,2102.291260 
	C1507.534180,2067.669922 1507.516846,2033.048828 1507.545898,1998.427612 
	C1507.554688,1987.856689 1507.812622,1987.609497 1517.996582,1987.558105 
	C1528.316162,1987.505859 1538.637939,1987.420410 1548.955566,1987.572021 
	C1567.730347,1987.847778 1584.066040,1993.922729 1597.251709,2008.796631 
M1605.532349,2049.237061 
	C1605.186279,2046.264648 1604.904053,2043.283203 1604.484131,2040.321289 
	C1600.732300,2013.859253 1584.221191,1996.985229 1557.549438,1993.786987 
	C1545.387817,1992.328613 1532.996826,1992.738647 1520.706787,1992.432983 
	C1518.216431,1992.371094 1515.711182,1992.900757 1513.200928,1993.158936 
	C1513.200928,2031.752808 1513.200928,2069.564209 1513.200928,2107.472168 
	C1528.578857,2107.472168 1543.652344,2108.962158 1558.309692,2107.127441 
	C1580.983154,2104.288818 1596.820801,2091.474854 1602.995605,2068.696045 
	C1604.546875,2062.973145 1604.747803,2056.884277 1605.532349,2049.237061 
z"/>
<path fill="#E6E6E6" opacity="1.000000" stroke="none" 
	d="
M1708.160400,2085.129395 
	C1709.310425,2085.384766 1709.011475,2085.654297 1708.205444,2085.153320 
	C1706.548462,2086.442627 1705.697388,2088.233154 1704.846436,2090.023438 
	C1703.989380,2091.418213 1703.132324,2092.813232 1702.343262,2094.089600 
	C1692.344849,2109.001221 1677.671021,2114.137695 1660.313477,2113.832520 
	C1648.989380,2113.633301 1637.657959,2113.897217 1626.332153,2113.757812 
	C1618.885010,2113.666016 1617.614624,2112.532471 1617.590454,2104.930176 
	C1617.475220,2068.616211 1617.475220,2032.301270 1617.588135,1995.987183 
	C1617.611328,1988.562378 1618.785156,1987.654541 1626.578857,1987.567627 
	C1635.906250,1987.463745 1645.235962,1987.496338 1654.563965,1987.559570 
	C1663.422119,1987.619629 1671.658936,1989.744263 1678.802856,1995.257080 
	C1690.909790,2004.599854 1698.138306,2020.112427 1687.756104,2040.891479 
	C1698.230103,2047.511108 1706.040039,2056.213379 1707.272339,2069.127197 
	C1707.767944,2074.320557 1707.131470,2079.621826 1708.160400,2085.129395 
M1675.270630,2107.399658 
	C1677.166016,2106.775146 1679.117554,2106.282715 1680.947754,2105.504883 
	C1694.109375,2099.911621 1702.292725,2087.541748 1702.259399,2073.403564 
	C1702.227173,2059.746094 1695.190063,2050.296875 1680.610962,2044.322754 
	C1679.763916,2043.975586 1678.937012,2043.579102 1678.052612,2043.184082 
	C1691.302490,2027.639771 1690.974854,2011.418701 1676.562988,2000.534546 
	C1671.977661,1997.071533 1665.984985,1994.090820 1660.402832,1993.612305 
	C1648.291016,1992.574341 1636.028687,1993.292358 1623.268311,1993.292358 
	C1623.268311,2031.395752 1623.268311,2069.469727 1623.268311,2107.704346 
	C1640.394531,2107.704346 1656.981079,2107.704346 1675.270630,2107.399658 
z"/>
<path fill="#E0E0E0" opacity="1.000000" stroke="none" 
	d="
M1892.241943,2147.850342 
	C1913.388062,2165.723145 1916.737427,2192.983643 1908.512207,2213.435303 
	C1899.974243,2234.664307 1875.215698,2251.598877 1847.078857,2247.200928 
	C1821.539307,2243.209229 1799.617432,2218.774902 1800.066895,2192.197510 
	C1800.458618,2169.034180 1810.500977,2151.628662 1830.861206,2141.460693 
	C1851.843628,2130.981934 1872.627686,2132.868652 1892.241943,2147.850342 
M1804.589478,2187.699707 
	C1802.651245,2224.464355 1835.752075,2248.816895 1867.036987,2242.177979 
	C1894.369263,2236.377441 1913.140747,2208.541748 1907.286499,2181.289551 
	C1901.127197,2152.617188 1872.387695,2133.995117 1844.656738,2141.229980 
	C1821.616699,2147.241211 1808.629272,2162.688721 1804.589478,2187.699707 
z"/>
<path fill="#E0E0E0" opacity="1.000000" stroke="none" 
	d="
M1738.497925,2211.990723 
	C1738.497925,2223.580078 1738.497925,2234.172363 1738.497925,2245.287354 
	C1730.392334,2245.287354 1723.203979,2245.287354 1714.722534,2245.287354 
	C1713.590576,2236.184082 1714.332764,2226.966064 1714.203247,2217.819824 
	C1714.066772,2208.172363 1714.172607,2198.521729 1714.172607,2188.872314 
	C1714.172607,2179.593018 1714.172607,2170.313477 1714.172607,2160.438232 
	C1705.130005,2160.438232 1696.893188,2160.438232 1688.087769,2160.438232 
	C1688.087769,2152.360840 1688.087769,2144.890869 1688.087769,2136.791992 
	C1713.739136,2136.791992 1739.121338,2136.791992 1764.485718,2136.791992 
	C1765.042358,2138.160156 1765.682739,2139.040771 1765.729736,2139.951904 
	C1766.775146,2160.224365 1766.762695,2160.217041 1746.386353,2160.502197 
	C1744.125610,2160.533691 1741.866943,2160.717041 1738.497925,2160.885498 
	C1738.497925,2177.942627 1738.497925,2194.468018 1738.497925,2211.990723 
M1718.407104,2187.005371 
	C1718.407104,2204.878662 1718.407104,2222.752197 1718.407104,2240.824219 
	C1724.128296,2240.824219 1728.843384,2240.824219 1734.356445,2240.824219 
	C1734.356445,2212.296143 1734.356445,2184.497070 1734.356445,2155.655518 
	C1743.585571,2155.655518 1752.032471,2155.655518 1761.108643,2155.655518 
	C1761.108643,2152.316162 1761.206665,2150.033691 1761.080933,2147.763428 
	C1760.957275,2145.529053 1760.606567,2143.307129 1760.342651,2140.965332 
	C1737.335327,2140.965332 1714.885254,2140.965332 1692.156616,2140.965332 
	C1692.156616,2146.011230 1692.156616,2150.527100 1692.156616,2156.117676 
	C1700.993164,2156.117676 1709.444824,2156.117676 1718.407104,2156.117676 
	C1718.407104,2166.461670 1718.407104,2175.734375 1718.407104,2187.005371 
z"/>
<path fill="#E6E6E6" opacity="1.000000" stroke="none" 
	d="
M1794.465088,2227.726807 
	C1794.464966,2233.949951 1794.464966,2239.216553 1794.464966,2245.775635 
	C1787.339111,2245.775635 1781.147339,2245.765137 1774.955688,2245.780029 
	C1771.748047,2245.787842 1770.088013,2244.091797 1769.647095,2241.038330 
	C1769.552612,2240.383545 1769.549561,2239.711914 1769.549438,2239.047852 
	C1769.544189,2207.132812 1769.572388,2175.217529 1769.513428,2143.302490 
	C1769.504395,2138.376709 1771.351074,2135.910645 1776.602539,2136.150635 
	C1782.173584,2136.405273 1787.765137,2136.207520 1794.465088,2136.207520 
	C1794.465088,2167.063721 1794.465088,2196.916992 1794.465088,2227.726807 
M1789.838135,2206.996094 
	C1789.838135,2196.039795 1789.869019,2185.083252 1789.829590,2174.126953 
	C1789.789429,2162.981934 1790.013672,2151.821777 1789.678345,2141.087402 
	C1783.803101,2141.087402 1779.314209,2141.087402 1774.843994,2141.087402 
	C1774.843994,2174.810791 1774.843994,2207.849365 1774.843994,2241.100098 
	C1779.937988,2241.100098 1784.421387,2241.100098 1789.838135,2241.100098 
	C1789.838135,2230.083984 1789.838135,2219.539062 1789.838135,2206.996094 
z"/>
<path fill="#DC001F" opacity="1.000000" stroke="none" 
	d="
M1871.342773,1958.075439 
	C1871.021118,1959.282593 1870.626221,1959.932617 1870.231445,1960.582764 
	C1869.380859,1959.122070 1868.509277,1957.672607 1867.709595,1956.184570 
	C1867.622070,1956.021729 1867.946289,1955.637451 1868.471069,1954.528809 
	C1869.547485,1955.678589 1870.408569,1956.598511 1871.342773,1958.075439 
z"/>
<path fill="#0A0A0A" opacity="1.000000" stroke="none" 
	d="
M1645.547852,2151.655029 
	C1647.533691,2147.389160 1649.194580,2143.799316 1651.768433,2138.235840 
	C1667.894043,2173.269775 1683.319580,2206.782715 1699.156372,2241.189453 
	C1692.753784,2241.189453 1687.886841,2241.189453 1682.818848,2241.189453 
	C1680.468872,2236.306885 1678.177612,2231.546143 1675.685913,2226.369141 
	C1660.178223,2226.369141 1644.647949,2226.369141 1628.021118,2226.369141 
	C1625.870728,2230.664062 1623.390259,2235.618652 1620.662109,2241.067627 
	C1616.011719,2241.067627 1611.106812,2241.067627 1604.744019,2241.067627 
	C1617.723389,2210.915039 1631.849365,2181.788330 1645.547852,2151.655029 
M1645.582520,2186.573730 
	C1642.017212,2194.894531 1637.557617,2202.878906 1634.473145,2212.509277 
	C1646.746216,2212.198242 1657.478271,2212.939697 1669.398438,2211.889404 
	C1663.397217,2198.619873 1657.999878,2186.685303 1651.896606,2173.190186 
	C1649.418945,2178.305420 1647.753052,2181.744629 1645.582520,2186.573730 
z"/>
<path fill="#0A0A0A" opacity="1.000000" stroke="none" 
	d="
M1567.289307,2243.266113 
	C1538.931763,2243.805664 1516.344604,2224.058105 1512.768677,2196.910645 
	C1510.098145,2176.637451 1522.708862,2154.279297 1542.415039,2144.676270 
	C1558.927002,2136.629639 1583.109619,2137.741699 1598.498169,2155.233154 
	C1595.931519,2158.805908 1593.293091,2162.478271 1590.690674,2166.100586 
	C1567.393921,2151.452393 1550.404663,2152.426270 1536.784302,2168.705322 
	C1524.771851,2183.062500 1525.288330,2201.991455 1538.072266,2215.909912 
	C1552.090088,2231.171875 1568.443115,2231.569336 1590.492065,2216.631348 
	C1593.122192,2220.222412 1595.782959,2223.855225 1598.727051,2227.874756 
	C1590.408203,2237.600342 1579.977173,2241.790039 1567.289307,2243.266113 
z"/>
<path fill="#0A0A0A" opacity="1.000000" stroke="none" 
	d="
M1329.603760,2150.309326 
	C1329.744629,2146.736572 1329.885376,2144.129883 1330.067383,2140.762451 
	C1344.993042,2140.366455 1359.671509,2139.156006 1373.948853,2142.688477 
	C1403.840698,2150.084717 1411.570801,2175.738281 1409.173706,2197.703857 
	C1406.434692,2222.804443 1391.738403,2237.115967 1366.644409,2240.490234 
	C1362.692627,2241.021729 1358.694092,2241.385986 1354.710327,2241.460693 
	C1346.773560,2241.609863 1338.832031,2241.504639 1329.603760,2241.504639 
	C1329.603760,2210.967041 1329.603760,2181.121338 1329.603760,2150.309326 
M1344.488892,2181.036621 
	C1344.488892,2188.347412 1344.440918,2195.658691 1344.502319,2202.968994 
	C1344.565063,2210.444336 1344.735229,2217.918945 1344.858521,2225.397217 
	C1363.241821,2226.777588 1380.227051,2226.797607 1389.673462,2209.104492 
	C1396.943115,2195.488770 1396.311401,2181.121582 1386.692749,2168.726562 
	C1376.049927,2155.012207 1360.783936,2154.936035 1344.488892,2156.551758 
	C1344.488892,2164.535889 1344.488892,2171.796143 1344.488892,2181.036621 
z"/>
<path fill="#0A0A0A" opacity="1.000000" stroke="none" 
	d="
M1432.315430,2229.453613 
	C1427.139282,2222.606934 1423.998291,2215.609863 1423.926758,2207.743164 
	C1423.727051,2185.802490 1423.857178,2163.858643 1423.857178,2141.205322 
	C1428.526611,2141.205322 1432.942627,2141.205322 1438.057007,2141.205322 
	C1438.279785,2143.732422 1438.688354,2146.274902 1438.697998,2148.818848 
	C1438.758301,2164.789795 1438.658936,2180.760986 1438.776978,2196.731201 
	C1438.808960,2201.035889 1439.006836,2205.415283 1439.830566,2209.623047 
	C1441.889648,2220.142090 1450.621582,2227.510742 1460.738770,2227.761475 
	C1470.445679,2228.002441 1479.290039,2221.591797 1482.165283,2211.556152 
	C1483.333862,2207.477539 1483.692749,2203.055908 1483.734009,2198.783691 
	C1483.910889,2180.485596 1483.827881,2162.184814 1483.861816,2143.885010 
	C1483.863037,2143.231934 1484.096802,2142.579346 1484.359741,2141.210205 
	C1488.642456,2141.210205 1493.076782,2141.210205 1498.343994,2141.210205 
	C1498.626343,2143.135254 1499.208740,2145.293457 1499.217773,2147.454102 
	C1499.291504,2165.088135 1499.437744,2182.725830 1499.152954,2200.355713 
	C1499.062500,2205.949463 1498.560791,2211.792480 1496.840210,2217.062012 
	C1486.959229,2247.325439 1449.736328,2251.073975 1432.315430,2229.453613 
z"/>
<path fill="#0A0A0A" opacity="1.000000" stroke="none" 
	d="
M1944.433960,2008.139160 
	C1944.433960,2021.024902 1944.433960,2032.933838 1944.433960,2044.842773 
	C1953.323364,2037.458496 1959.181152,2028.104126 1965.686279,2019.289062 
	C1972.197754,2010.465332 1978.502563,2001.489136 1984.851929,1992.643799 
	C1991.220093,1992.643799 1997.172241,1992.643799 2004.803711,1992.643799 
	C1998.481445,2003.328613 1991.167358,2012.159668 1984.596069,2021.461792 
	C1978.085449,2030.678223 1971.436523,2039.796997 1964.489624,2049.457275 
	C1979.145752,2068.611084 1993.637085,2087.549316 2009.447510,2108.211670 
	C2002.182007,2108.211670 1996.664307,2108.683350 1991.292358,2108.003174 
	C1988.790405,2107.686279 1985.968384,2105.610596 1984.322144,2103.520508 
	C1973.606323,2089.916992 1963.182129,2076.083984 1952.640991,2062.342529 
	C1950.639404,2059.733398 1948.539917,2057.199219 1946.594238,2054.766113 
	C1945.838379,2055.045898 1945.521362,2055.115967 1945.257324,2055.274658 
	C1945.001099,2055.428467 1944.601807,2055.672607 1944.601440,2055.877197 
	C1944.570923,2072.848877 1944.573242,2089.820312 1944.573242,2107.506836 
	C1938.694336,2107.506836 1933.256104,2107.506836 1927.275879,2107.506836 
	C1927.275879,2069.643311 1927.275879,2031.794434 1927.275879,1993.190918 
	C1932.467773,1993.190918 1937.600464,1993.190918 1944.183105,1993.190918 
	C1944.260742,1997.510986 1944.347290,2002.336548 1944.433960,2008.139160 
z"/>
<path fill="#0A0A0A" opacity="1.000000" stroke="none" 
	d="
M1835.941772,2003.744629 
	C1859.840088,1985.337891 1892.639526,1988.304688 1911.529785,2008.985596 
	C1908.441895,2013.246094 1905.254761,2017.643555 1902.079224,2022.024780 
	C1877.477417,2004.954590 1856.812012,2005.761597 1840.802368,2023.881348 
	C1826.723389,2039.816040 1826.935303,2062.765381 1841.306030,2078.433105 
	C1857.627930,2096.228027 1878.414185,2096.748291 1901.635986,2079.439697 
	C1903.425171,2081.615479 1905.322021,2083.766602 1907.037354,2086.053955 
	C1908.628296,2088.175537 1910.025391,2090.442383 1911.472168,2092.592529 
	C1895.895630,2111.299316 1869.163574,2114.346924 1848.396973,2105.267822 
	C1809.557739,2088.287598 1800.227173,2038.966431 1830.159058,2008.851196 
	C1831.799561,2007.200562 1833.618042,2005.726807 1835.941772,2003.744629 
z"/>
<path fill="#0A0A0A" opacity="1.000000" stroke="none" 
	d="
M1368.189697,2040.340942 
	C1378.445679,2040.340942 1387.726074,2040.340942 1397.734375,2040.340942 
	C1397.734375,2046.299072 1397.734375,2051.726318 1397.734375,2058.244629 
	C1383.793701,2058.244629 1369.673340,2058.244629 1355.064575,2058.244629 
	C1355.064575,2069.152832 1355.064575,2079.004395 1355.064575,2089.945312 
	C1371.558838,2089.945312 1387.998291,2089.945312 1405.070312,2089.945312 
	C1405.070312,2096.167236 1405.070312,2101.358154 1405.070312,2106.705322 
	C1398.685425,2108.719238 1360.400879,2109.414795 1338.260498,2107.778809 
	C1336.337158,2100.997559 1335.743774,2007.719482 1337.615967,1993.043213 
	C1359.934204,1993.043213 1382.339111,1993.043213 1405.235596,1993.043213 
	C1405.235596,1998.552368 1405.235596,2003.725220 1405.235596,2009.942383 
	C1388.694824,2009.942383 1372.223145,2009.942383 1355.164795,2009.942383 
	C1355.164795,2020.426880 1355.164795,2029.881714 1355.164795,2040.340942 
	C1359.405396,2040.340942 1363.309570,2040.340942 1368.189697,2040.340942 
z"/>
<path fill="#0A0A0A" opacity="1.000000" stroke="none" 
	d="
M1471.952271,2108.256348 
	C1455.994263,2108.256348 1441.030029,2108.256348 1425.389771,2108.256348 
	C1425.389771,2069.665771 1425.389771,2031.601929 1425.389771,1992.970215 
	C1447.804443,1992.970215 1469.965454,1992.970215 1493.108643,1992.970215 
	C1493.304077,1995.610962 1493.587769,1998.438477 1493.700928,2001.272705 
	C1493.804199,2003.859741 1493.722778,2006.454346 1493.722778,2010.076660 
	C1476.561157,2010.076660 1460.102783,2010.076660 1443.107178,2010.076660 
	C1443.107178,2020.571899 1443.107178,2030.029907 1443.107178,2040.264893 
	C1457.462769,2040.264893 1471.330078,2040.264893 1485.824707,2040.264893 
	C1485.824707,2046.442505 1485.824707,2051.866943 1485.824707,2058.017334 
	C1471.850464,2058.017334 1457.967041,2058.017334 1443.318848,2058.017334 
	C1443.318848,2068.798584 1443.318848,2078.910400 1443.318848,2090.103516 
	C1459.700806,2090.103516 1476.151489,2090.103516 1493.149780,2090.103516 
	C1493.149780,2096.320068 1493.149780,2101.509277 1493.149780,2107.952881 
	C1486.611572,2108.051025 1479.778809,2108.153564 1471.952271,2108.256348 
z"/>
<path fill="#0A0A0A" opacity="1.000000" stroke="none" 
	d="
M1923.603760,2156.336670 
	C1923.603760,2150.792969 1923.603760,2146.194336 1923.603760,2139.103027 
	C1945.519409,2161.917236 1965.873047,2183.105469 1986.866577,2204.959961 
	C1989.695068,2197.649170 1988.049683,2190.765137 1988.317749,2184.096436 
	C1988.611694,2176.784180 1988.384521,2169.451172 1988.384521,2162.127197 
	C1988.384521,2155.218506 1988.384644,2148.310059 1988.384644,2140.964844 
	C1993.859863,2140.964844 1998.329712,2140.964844 2003.323730,2140.964844 
	C2003.323730,2174.493652 2003.323730,2207.607666 2003.323730,2242.822021 
	C1981.596558,2220.558105 1961.438232,2198.849854 1938.993774,2175.649170 
	C1937.965942,2198.891113 1939.148193,2219.852783 1938.221191,2241.091064 
	C1933.202393,2241.091064 1929.030273,2241.091064 1923.603760,2241.091064 
	C1923.603760,2212.960693 1923.603760,2185.121338 1923.603760,2156.336670 
z"/>
<path fill="#0A0A0A" opacity="1.000000" stroke="none" 
	d="
M1252.708008,2079.979492 
	C1252.708008,2050.419434 1252.708008,2021.854736 1252.708008,1992.855469 
	C1276.026611,1992.855469 1298.212158,1992.855469 1321.061279,1992.855469 
	C1321.061279,1998.230347 1321.061279,2003.420044 1321.061279,2010.065308 
	C1313.461426,2010.160156 1305.305176,2010.302368 1297.148438,2010.352417 
	C1288.830444,2010.403320 1280.511963,2010.363647 1270.914307,2010.363647 
	C1270.175903,2020.533691 1270.683960,2030.351929 1270.573120,2041.292480 
	C1285.184570,2041.292480 1299.294922,2041.292480 1313.925537,2041.292480 
	C1313.925537,2047.845947 1313.925537,2053.282471 1313.925537,2059.481445 
	C1299.647583,2059.481445 1285.752441,2059.481445 1271.066284,2059.481445 
	C1271.066284,2075.735840 1271.066284,2091.273438 1271.066284,2107.529541 
	C1264.820923,2107.529541 1259.352539,2107.529541 1252.708008,2107.529541 
	C1252.708008,2098.785645 1252.708008,2089.880127 1252.708008,2079.979492 
z"/>
<path fill="#0A0A0A" opacity="1.000000" stroke="none" 
	d="
M1736.618164,2040.726074 
	C1744.468628,2023.886597 1751.992188,2007.727539 1760.335083,1989.808472 
	C1778.965942,2030.166382 1796.709961,2068.603027 1814.825317,2107.844238 
	C1807.964111,2107.844238 1802.390137,2107.844238 1795.973145,2107.844238 
	C1793.393799,2102.681152 1790.615967,2097.120605 1787.708740,2091.301270 
	C1769.619263,2091.301270 1751.717529,2091.301270 1732.728149,2091.301270 
	C1730.272949,2096.416504 1727.593750,2101.998291 1724.792969,2107.833496 
	C1718.730835,2107.833496 1712.817749,2107.833496 1705.774658,2107.833496 
	C1716.110474,2085.334961 1726.200928,2063.370605 1736.618164,2040.726074 
M1751.167725,2050.036621 
	C1747.508301,2058.334473 1743.848755,2066.632324 1739.737305,2075.955078 
	C1754.219238,2075.296143 1766.970093,2076.578857 1780.672607,2075.029541 
	C1773.873901,2059.926025 1767.554688,2045.887817 1760.307617,2029.788452 
	C1756.888550,2037.354004 1754.335571,2043.003174 1751.167725,2050.036621 
z"/>
<path fill="#000000" opacity="1.000000" stroke="none" 
	d="
M1705.692627,2090.644287 
	C1705.697388,2088.233154 1706.548462,2086.442627 1708.249878,2085.272949 
	C1708.246460,2087.684082 1707.392578,2089.474609 1705.692627,2090.644287 
z"/>
<path fill="#0A0A0A" opacity="1.000000" stroke="none" 
	d="
M1285.953369,2197.594482 
	C1279.689697,2197.594482 1274.401978,2197.594482 1268.478149,2197.594482 
	C1268.478149,2206.902100 1268.478149,2215.718018 1268.478149,2226.000000 
	C1275.420654,2226.000000 1282.588867,2226.000000 1289.757080,2226.000000 
	C1296.706055,2226.000000 1303.654907,2226.000000 1311.262451,2226.000000 
	C1311.262451,2231.265869 1311.262451,2235.980225 1311.262451,2241.150391 
	C1291.744629,2241.150391 1272.595459,2241.150391 1252.845215,2241.150391 
	C1252.845215,2207.733154 1252.845215,2174.660156 1252.845215,2140.994629 
	C1272.160156,2140.994629 1291.299561,2140.994629 1311.187988,2140.994629 
	C1311.187988,2145.379639 1311.187988,2149.854248 1311.187988,2155.338379 
	C1297.538086,2155.338379 1283.418213,2155.338379 1268.576782,2155.338379 
	C1268.576782,2164.420166 1268.576782,2172.530762 1268.576782,2181.670654 
	C1280.471069,2181.670654 1292.606567,2181.670654 1305.306763,2181.670654 
	C1305.306763,2187.162842 1305.306763,2191.671143 1305.306763,2197.594482 
	C1299.297852,2197.594482 1293.113647,2197.594482 1285.953369,2197.594482 
z"/>
<path fill="#0A0A0A" opacity="1.000000" stroke="none" 
	d="
M1605.550781,2050.100342 
	C1604.747803,2056.884277 1604.546875,2062.973145 1602.995605,2068.696045 
	C1596.820801,2091.474854 1580.983154,2104.288818 1558.309692,2107.127441 
	C1543.652344,2108.962158 1528.578857,2107.472168 1513.200928,2107.472168 
	C1513.200928,2069.564209 1513.200928,2031.752808 1513.200928,1993.158936 
	C1515.711182,1992.900757 1518.216431,1992.371094 1520.706787,1992.432983 
	C1532.996826,1992.738647 1545.387817,1992.328613 1557.549438,1993.786987 
	C1584.221191,1996.985229 1600.732300,2013.859253 1604.484131,2040.321289 
	C1604.904053,2043.283203 1605.186279,2046.264648 1605.550781,2050.100342 
M1530.370728,2058.991699 
	C1530.370728,2069.215820 1530.370728,2079.439697 1530.370728,2090.385742 
	C1537.125610,2090.385742 1542.736816,2090.520752 1548.339966,2090.362061 
	C1571.238770,2089.713135 1585.624023,2076.011719 1587.376831,2053.297119 
	C1588.869873,2033.947754 1578.257568,2017.436890 1560.784424,2012.382446 
	C1551.125122,2009.588135 1541.253662,2009.645630 1530.370728,2010.791992 
	C1530.370728,2026.522827 1530.370728,2041.758911 1530.370728,2058.991699 
z"/>
<path fill="#0A0A0A" opacity="1.000000" stroke="none" 
	d="
M1674.419189,2107.552002 
	C1656.981079,2107.704346 1640.394531,2107.704346 1623.268311,2107.704346 
	C1623.268311,2069.469727 1623.268311,2031.395752 1623.268311,1993.292358 
	C1636.028687,1993.292358 1648.291016,1992.574341 1660.402832,1993.612305 
	C1665.984985,1994.090820 1671.977661,1997.071533 1676.562988,2000.534546 
	C1690.974854,2011.418701 1691.302490,2027.639771 1678.052612,2043.184082 
	C1678.937012,2043.579102 1679.763916,2043.975586 1680.610962,2044.322754 
	C1695.190063,2050.296875 1702.227173,2059.746094 1702.259399,2073.403564 
	C1702.292725,2087.541748 1694.109375,2099.911621 1680.947754,2105.504883 
	C1679.117554,2106.282715 1677.166016,2106.775146 1674.419189,2107.552002 
M1684.694214,2071.234375 
	C1683.806763,2062.237305 1678.109009,2057.107910 1669.889648,2056.226562 
	C1660.469849,2055.216553 1650.858643,2055.992432 1641.072998,2055.992432 
	C1641.072998,2067.825195 1641.072998,2078.908447 1641.072998,2090.636963 
	C1649.582642,2090.636963 1657.531128,2091.019531 1665.428345,2090.546387 
	C1676.959717,2089.854980 1682.291016,2084.665283 1684.694214,2071.234375 
M1659.270752,2039.267700 
	C1668.965698,2034.852661 1672.045166,2030.169556 1670.542969,2022.125977 
	C1669.146118,2014.647827 1663.139038,2010.244995 1653.680542,2009.934692 
	C1649.509399,2009.797852 1645.329956,2009.911621 1641.097656,2009.911621 
	C1641.097656,2020.570190 1641.097656,2029.951416 1641.097656,2039.603516 
	C1647.087402,2039.603516 1652.352173,2039.603516 1659.270752,2039.267700 
z"/>
<path fill="#0A0A0A" opacity="1.000000" stroke="none" 
	d="
M1804.713867,2186.876953 
	C1808.629272,2162.688721 1821.616699,2147.241211 1844.656738,2141.229980 
	C1872.387695,2133.995117 1901.127197,2152.617188 1907.286499,2181.289551 
	C1913.140747,2208.541748 1894.369263,2236.377441 1867.036987,2242.177979 
	C1835.752075,2248.816895 1802.651245,2224.464355 1804.713867,2186.876953 
M1851.885010,2227.521240 
	C1854.536133,2227.552734 1857.217041,2227.857910 1859.833496,2227.572266 
	C1881.427734,2225.213379 1895.909912,2205.616943 1891.953613,2184.242676 
	C1888.299683,2164.501221 1867.240845,2151.354492 1847.301025,2156.366455 
	C1827.111572,2161.441406 1815.153564,2183.400391 1822.126831,2203.210938 
	C1826.805176,2216.502197 1836.531616,2224.317383 1851.885010,2227.521240 
z"/>
<path fill="#0A0A0A" opacity="1.000000" stroke="none" 
	d="
M1718.407104,2186.006348 
	C1718.407104,2175.734375 1718.407104,2166.461670 1718.407104,2156.117676 
	C1709.444824,2156.117676 1700.993164,2156.117676 1692.156616,2156.117676 
	C1692.156616,2150.527100 1692.156616,2146.011230 1692.156616,2140.965332 
	C1714.885254,2140.965332 1737.335327,2140.965332 1760.342651,2140.965332 
	C1760.606567,2143.307129 1760.957275,2145.529053 1761.080933,2147.763428 
	C1761.206665,2150.033691 1761.108643,2152.316162 1761.108643,2155.655518 
	C1752.032471,2155.655518 1743.585571,2155.655518 1734.356445,2155.655518 
	C1734.356445,2184.497070 1734.356445,2212.296143 1734.356445,2240.824219 
	C1728.843384,2240.824219 1724.128296,2240.824219 1718.407104,2240.824219 
	C1718.407104,2222.752197 1718.407104,2204.878662 1718.407104,2186.006348 
z"/>
<path fill="#0A0A0A" opacity="1.000000" stroke="none" 
	d="
M1789.838135,2207.995117 
	C1789.838135,2219.539062 1789.838135,2230.083984 1789.838135,2241.100098 
	C1784.421387,2241.100098 1779.937988,2241.100098 1774.843994,2241.100098 
	C1774.843994,2207.849365 1774.843994,2174.810791 1774.843994,2141.087402 
	C1779.314209,2141.087402 1783.803101,2141.087402 1789.678345,2141.087402 
	C1790.013672,2151.821777 1789.789429,2162.981934 1789.829590,2174.126953 
	C1789.869019,2185.083252 1789.838135,2196.039795 1789.838135,2207.995117 
z"/>
<path fill="#E0E0E0" opacity="1.000000" stroke="none" 
	d="
M1645.834839,2185.878906 
	C1647.753052,2181.744629 1649.418945,2178.305420 1651.896606,2173.190186 
	C1657.999878,2186.685303 1663.397217,2198.619873 1669.398438,2211.889404 
	C1657.478271,2212.939697 1646.746216,2212.198242 1634.473145,2212.509277 
	C1637.557617,2202.878906 1642.017212,2194.894531 1645.834839,2185.878906 
M1647.529541,2208.223145 
	C1652.113037,2208.223145 1656.696655,2208.223145 1662.570923,2208.223145 
	C1658.847290,2200.096436 1655.582642,2192.971680 1651.784790,2184.682861 
	C1649.263794,2189.988037 1647.496094,2193.517090 1645.899658,2197.122070 
	C1644.403076,2200.502197 1643.087646,2203.962891 1641.544678,2207.750977 
	C1643.846802,2208.003906 1644.822266,2208.111084 1647.529541,2208.223145 
z"/>
<path fill="#D6D6D6" opacity="1.000000" stroke="none" 
	d="
M1344.488892,2180.046387 
	C1344.488892,2171.796143 1344.488892,2164.535889 1344.488892,2156.551758 
	C1360.783936,2154.936035 1376.049927,2155.012207 1386.692749,2168.726562 
	C1396.311401,2181.121582 1396.943115,2195.488770 1389.673462,2209.104492 
	C1380.227051,2226.797607 1363.241821,2226.777588 1344.858521,2225.397217 
	C1344.735229,2217.918945 1344.565063,2210.444336 1344.502319,2202.968994 
	C1344.440918,2195.658691 1344.488892,2188.347412 1344.488892,2180.046387 
M1388.135376,2183.269531 
	C1382.353394,2165.541260 1370.124023,2158.466309 1350.487793,2161.611816 
	C1350.487793,2181.355469 1350.487793,2201.119873 1350.487793,2220.788574 
	C1379.953125,2225.006836 1393.485352,2202.842285 1388.135376,2183.269531 
z"/>
<path fill="#E0E0E0" opacity="1.000000" stroke="none" 
	d="
M1751.475220,2049.344482 
	C1754.335571,2043.003174 1756.888550,2037.354004 1760.307617,2029.788452 
	C1767.554688,2045.887817 1773.873901,2059.926025 1780.672607,2075.029541 
	C1766.970093,2076.578857 1754.219238,2075.296143 1739.737305,2075.955078 
	C1743.848755,2066.632324 1747.508301,2058.334473 1751.475220,2049.344482 
M1750.186279,2065.224854 
	C1749.719116,2066.685547 1749.251953,2068.146240 1748.810303,2069.527344 
	C1756.703369,2069.527344 1764.086548,2069.527344 1771.981812,2069.527344 
	C1771.133911,2067.211182 1770.665771,2065.648682 1770.004150,2064.173096 
	C1767.063354,2057.613770 1764.067139,2051.079346 1760.473389,2043.177979 
	C1756.830811,2050.746582 1753.707153,2057.236816 1750.186279,2065.224854 
z"/>
<path fill="#D6D6D6" opacity="1.000000" stroke="none" 
	d="
M1530.370728,2057.993408 
	C1530.370728,2041.758911 1530.370728,2026.522827 1530.370728,2010.791992 
	C1541.253662,2009.645630 1551.125122,2009.588135 1560.784424,2012.382446 
	C1578.257568,2017.436890 1588.869873,2033.947754 1587.376831,2053.297119 
	C1585.624023,2076.011719 1571.238770,2089.713135 1548.339966,2090.362061 
	C1542.736816,2090.520752 1537.125610,2090.385742 1530.370728,2090.385742 
	C1530.370728,2079.439697 1530.370728,2069.215820 1530.370728,2057.993408 
M1535.993652,2083.114258 
	C1536.885010,2083.875244 1537.807983,2085.325195 1538.662842,2085.285889 
	C1544.605835,2085.014893 1550.632690,2084.952881 1556.448975,2083.852783 
	C1571.380737,2081.028564 1580.390137,2069.962891 1581.781372,2053.559570 
	C1583.137817,2037.566162 1575.700684,2024.008301 1562.369019,2018.689453 
	C1553.905518,2015.312988 1545.142700,2015.107788 1535.893555,2016.597290 
	C1535.893555,2038.493286 1535.893555,2059.790283 1535.993652,2083.114258 
z"/>
<path fill="#E6E6E6" opacity="1.000000" stroke="none" 
	d="
M1684.695923,2072.059082 
	C1682.291016,2084.665283 1676.959717,2089.854980 1665.428345,2090.546387 
	C1657.531128,2091.019531 1649.582642,2090.636963 1641.072998,2090.636963 
	C1641.072998,2078.908447 1641.072998,2067.825195 1641.072998,2055.992432 
	C1650.858643,2055.992432 1660.469849,2055.216553 1669.889648,2056.226562 
	C1678.109009,2057.107910 1683.806763,2062.237305 1684.695923,2072.059082 
M1678.438354,2077.146484 
	C1680.210571,2067.483154 1676.449219,2061.504150 1667.119385,2060.609619 
	C1660.324341,2059.958008 1653.416504,2060.482178 1646.226440,2060.482178 
	C1646.226440,2069.164551 1646.226440,2076.930176 1646.226440,2085.594482 
	C1651.559937,2085.594482 1656.463135,2085.308594 1661.319580,2085.662842 
	C1668.166016,2086.162354 1673.610962,2083.983154 1678.438354,2077.146484 
z"/>
<path fill="#D6D6D6" opacity="1.000000" stroke="none" 
	d="
M1658.443848,2039.435547 
	C1652.352173,2039.603516 1647.087402,2039.603516 1641.097656,2039.603516 
	C1641.097656,2029.951416 1641.097656,2020.570190 1641.097656,2009.911621 
	C1645.329956,2009.911621 1649.509399,2009.797852 1653.680542,2009.934692 
	C1663.139038,2010.244995 1669.146118,2014.647827 1670.542969,2022.125977 
	C1672.045166,2030.169556 1668.965698,2034.852661 1658.443848,2039.435547 
M1645.830322,2025.005615 
	C1645.968018,2027.880737 1646.105713,2030.755859 1646.260376,2033.986572 
	C1650.368896,2033.986572 1653.965820,2034.328735 1657.470215,2033.905396 
	C1662.537964,2033.293213 1665.787964,2029.131714 1665.466797,2024.425659 
	C1665.172607,2020.115112 1661.879028,2016.407715 1657.378418,2015.971436 
	C1653.866943,2015.631226 1650.296265,2015.903442 1646.220215,2015.903442 
	C1646.070435,2018.677612 1645.950439,2020.901367 1645.830322,2025.005615 
z"/>
<path fill="#E0E0E0" opacity="1.000000" stroke="none" 
	d="
M1851.074463,2227.370361 
	C1836.531616,2224.317383 1826.805176,2216.502197 1822.126831,2203.210938 
	C1815.153564,2183.400391 1827.111572,2161.441406 1847.301025,2156.366455 
	C1867.240845,2151.354492 1888.299683,2164.501221 1891.953613,2184.242676 
	C1895.909912,2205.616943 1881.427734,2225.213379 1859.833496,2227.572266 
	C1857.217041,2227.857910 1854.536133,2227.552734 1851.074463,2227.370361 
M1883.219727,2207.709229 
	C1890.285645,2195.933105 1889.384399,2184.424316 1881.790894,2173.320068 
	C1873.501831,2161.198730 1857.509033,2156.693604 1843.921753,2162.439209 
	C1830.427124,2168.145752 1822.961792,2182.966064 1825.684326,2197.242432 
	C1828.122559,2210.029053 1835.661743,2218.207764 1847.691528,2221.510498 
	C1861.770386,2225.375977 1873.612793,2220.967529 1883.219727,2207.709229 
z"/>
<path fill="#0A0A0A" opacity="1.000000" stroke="none" 
	d="
M1646.663574,2208.220703 
	C1644.822266,2208.111084 1643.846802,2208.003906 1641.544678,2207.750977 
	C1643.087646,2203.962891 1644.403076,2200.502197 1645.899658,2197.122070 
	C1647.496094,2193.517090 1649.263794,2189.988037 1651.784790,2184.682861 
	C1655.582642,2192.971680 1658.847290,2200.096436 1662.570923,2208.223145 
	C1656.696655,2208.223145 1652.113037,2208.223145 1646.663574,2208.220703 
z"/>
<path fill="#000000" opacity="1.000000" stroke="none" 
	d="
M1388.264160,2184.052979 
	C1393.485352,2202.842285 1379.953125,2225.006836 1350.487793,2220.788574 
	C1350.487793,2201.119873 1350.487793,2181.355469 1350.487793,2161.611816 
	C1370.124023,2158.466309 1382.353394,2165.541260 1388.264160,2184.052979 
z"/>
<path fill="#0A0A0A" opacity="1.000000" stroke="none" 
	d="
M1750.384766,2064.476074 
	C1753.707153,2057.236816 1756.830811,2050.746582 1760.473389,2043.177979 
	C1764.067139,2051.079346 1767.063354,2057.613770 1770.004150,2064.173096 
	C1770.665771,2065.648682 1771.133911,2067.211182 1771.981812,2069.527344 
	C1764.086548,2069.527344 1756.703369,2069.527344 1748.810303,2069.527344 
	C1749.251953,2068.146240 1749.719116,2066.685547 1750.384766,2064.476074 
z"/>
<path fill="#000000" opacity="1.000000" stroke="none" 
	d="
M1535.943604,2082.100830 
	C1535.893555,2059.790283 1535.893555,2038.493286 1535.893555,2016.597290 
	C1545.142700,2015.107788 1553.905518,2015.312988 1562.369019,2018.689453 
	C1575.700684,2024.008301 1583.137817,2037.566162 1581.781372,2053.559570 
	C1580.390137,2069.962891 1571.380737,2081.028564 1556.448975,2083.852783 
	C1550.632690,2084.952881 1544.605835,2085.014893 1538.662842,2085.285889 
	C1537.807983,2085.325195 1536.885010,2083.875244 1535.943604,2082.100830 
z"/>
<path fill="#0A0A0A" opacity="1.000000" stroke="none" 
	d="
M1678.079346,2077.816406 
	C1673.610962,2083.983154 1668.166016,2086.162354 1661.319580,2085.662842 
	C1656.463135,2085.308594 1651.559937,2085.594482 1646.226440,2085.594482 
	C1646.226440,2076.930176 1646.226440,2069.164551 1646.226440,2060.482178 
	C1653.416504,2060.482178 1660.324341,2059.958008 1667.119385,2060.609619 
	C1676.449219,2061.504150 1680.210571,2067.483154 1678.079346,2077.816406 
z"/>
<path fill="#0A0A0A" opacity="1.000000" stroke="none" 
	d="
M1645.830322,2024.065430 
	C1645.950439,2020.901367 1646.070435,2018.677612 1646.220215,2015.903442 
	C1650.296265,2015.903442 1653.866943,2015.631226 1657.378418,2015.971436 
	C1661.879028,2016.407715 1665.172607,2020.115112 1665.466797,2024.425659 
	C1665.787964,2029.131714 1662.537964,2033.293213 1657.470215,2033.905396 
	C1653.965820,2034.328735 1650.368896,2033.986572 1646.260376,2033.986572 
	C1646.105713,2030.755859 1645.968018,2027.880737 1645.830322,2024.065430 
z"/>
<path fill="#000000" opacity="1.000000" stroke="none" 
	d="
M1882.754639,2208.313965 
	C1873.612793,2220.967529 1861.770386,2225.375977 1847.691528,2221.510498 
	C1835.661743,2218.207764 1828.122559,2210.029053 1825.684326,2197.242432 
	C1822.961792,2182.966064 1830.427124,2168.145752 1843.921753,2162.439209 
	C1857.509033,2156.693604 1873.501831,2161.198730 1881.790894,2173.320068 
	C1889.384399,2184.424316 1890.285645,2195.933105 1882.754639,2208.313965 
z"/>
</svg>